<mxfile host="65bd71144e">
    <diagram id="Gz858mEum3ZqExhKirUY" name="第 1 页">
        <mxGraphModel dx="788" dy="535" grid="1" gridSize="10" guides="1" tooltips="1" connect="1" arrows="1" fold="1" page="1" pageScale="1" pageWidth="2336" pageHeight="1654" math="0" shadow="0">
            <root>
                <mxCell id="0"/>
                <mxCell id="1" parent="0"/>
                <mxCell id="2" value="&lt;font color=&quot;#000000&quot; style=&quot;font-size: 35px;&quot;&gt;ysyx_23060240_zwk&lt;/font&gt;" style="ellipse;whiteSpace=wrap;html=1;fontSize=21;fontStyle=1;strokeWidth=3;fillColor=#f5f5f5;strokeColor=#666666;gradientColor=#b3b3b3;" parent="1" vertex="1">
                    <mxGeometry x="1705" y="1300" width="490" height="190" as="geometry"/>
                </mxCell>
                <mxCell id="57" value="" style="endArrow=classic;html=1;fontSize=21;strokeWidth=3;startArrow=none;" parent="1" source="238" edge="1">
                    <mxGeometry relative="1" as="geometry">
                        <mxPoint x="1960" y="304.38" as="sourcePoint"/>
                        <mxPoint x="2160" y="304.38" as="targetPoint"/>
                    </mxGeometry>
                </mxCell>
                <mxCell id="59" value="" style="endArrow=classic;html=1;fontSize=21;strokeWidth=2;" parent="1" edge="1">
                    <mxGeometry relative="1" as="geometry">
                        <mxPoint x="1610" y="978.4200000000001" as="sourcePoint"/>
                        <mxPoint x="1830" y="978" as="targetPoint"/>
                    </mxGeometry>
                </mxCell>
                <mxCell id="60" value="mem_wr_data(32)" style="edgeLabel;resizable=0;html=1;align=center;verticalAlign=middle;strokeWidth=4;fontSize=21;" parent="59" connectable="0" vertex="1">
                    <mxGeometry relative="1" as="geometry"/>
                </mxCell>
                <mxCell id="61" value="" style="endArrow=classic;html=1;fontSize=21;strokeWidth=2;fillColor=#d80073;strokeColor=#A50040;" parent="1" edge="1">
                    <mxGeometry relative="1" as="geometry">
                        <mxPoint x="1610" y="1048" as="sourcePoint"/>
                        <mxPoint x="1830" y="1048" as="targetPoint"/>
                    </mxGeometry>
                </mxCell>
                <mxCell id="62" value="mem_rd_addr(32)" style="edgeLabel;resizable=0;html=1;align=center;verticalAlign=middle;strokeWidth=4;fontSize=21;" parent="61" connectable="0" vertex="1">
                    <mxGeometry relative="1" as="geometry"/>
                </mxCell>
                <mxCell id="65" value="" style="endArrow=classic;html=1;fontSize=21;fillColor=#1ba1e2;strokeColor=#006EAF;strokeWidth=2;" parent="1" edge="1">
                    <mxGeometry relative="1" as="geometry">
                        <mxPoint x="1650" y="848" as="sourcePoint"/>
                        <mxPoint x="1830" y="848" as="targetPoint"/>
                    </mxGeometry>
                </mxCell>
                <mxCell id="66" value="mem_rd_ctrl(3)" style="edgeLabel;resizable=0;html=1;align=center;verticalAlign=middle;strokeWidth=4;fontSize=21;" parent="65" connectable="0" vertex="1">
                    <mxGeometry relative="1" as="geometry"/>
                </mxCell>
                <mxCell id="67" value="" style="endArrow=classic;html=1;fontSize=21;fillColor=#1ba1e2;strokeColor=#006EAF;strokeWidth=2;" parent="1" edge="1">
                    <mxGeometry relative="1" as="geometry">
                        <mxPoint x="1650" y="897.1700000000001" as="sourcePoint"/>
                        <mxPoint x="1830" y="897.1700000000001" as="targetPoint"/>
                    </mxGeometry>
                </mxCell>
                <mxCell id="68" value="mem_wr_ctrl(8)" style="edgeLabel;resizable=0;html=1;align=center;verticalAlign=middle;strokeWidth=4;fontSize=21;" parent="67" connectable="0" vertex="1">
                    <mxGeometry relative="1" as="geometry"/>
                </mxCell>
                <mxCell id="69" value="" style="endArrow=classic;html=1;fontSize=21;strokeWidth=3;" parent="1" edge="1">
                    <mxGeometry relative="1" as="geometry">
                        <mxPoint x="2070" y="869.29" as="sourcePoint"/>
                        <mxPoint x="2310" y="869.29" as="targetPoint"/>
                        <Array as="points">
                            <mxPoint x="2160" y="869.29"/>
                        </Array>
                    </mxGeometry>
                </mxCell>
                <mxCell id="70" value="mem_rd_data(32)" style="edgeLabel;resizable=0;html=1;align=center;verticalAlign=middle;strokeWidth=4;fontSize=21;" parent="69" connectable="0" vertex="1">
                    <mxGeometry relative="1" as="geometry"/>
                </mxCell>
                <mxCell id="71" value="" style="rounded=0;whiteSpace=wrap;html=1;strokeWidth=4;fontSize=21;direction=south;" parent="1" vertex="1">
                    <mxGeometry x="1590" y="190" width="110" height="210" as="geometry"/>
                </mxCell>
                <mxCell id="72" value="&lt;p style=&quot;line-height: 160%; font-size: 30px;&quot;&gt;PC&lt;/p&gt;" style="text;html=1;align=center;verticalAlign=middle;resizable=0;points=[];autosize=1;strokeColor=none;fillColor=none;strokeWidth=4;perimeterSpacing=4;fontSize=30;fontStyle=1" parent="1" vertex="1">
                    <mxGeometry x="1610" y="110" width="70" height="120" as="geometry"/>
                </mxCell>
                <mxCell id="73" value="" style="endArrow=classic;html=1;fontSize=21;fillColor=#a20025;strokeColor=#6F0000;strokeWidth=3;" parent="1" edge="1">
                    <mxGeometry relative="1" as="geometry">
                        <mxPoint x="1490" y="200" as="sourcePoint"/>
                        <mxPoint x="1590" y="200" as="targetPoint"/>
                    </mxGeometry>
                </mxCell>
                <mxCell id="74" value="clk" style="edgeLabel;resizable=0;html=1;align=center;verticalAlign=middle;strokeWidth=4;fontSize=21;" parent="73" connectable="0" vertex="1">
                    <mxGeometry relative="1" as="geometry"/>
                </mxCell>
                <mxCell id="75" value="" style="endArrow=classic;html=1;fontSize=21;fillColor=#a20025;strokeColor=#6F0000;strokeWidth=3;" parent="1" edge="1">
                    <mxGeometry relative="1" as="geometry">
                        <mxPoint x="1490" y="219.31" as="sourcePoint"/>
                        <mxPoint x="1590" y="219.31" as="targetPoint"/>
                    </mxGeometry>
                </mxCell>
                <mxCell id="76" value="rst" style="edgeLabel;resizable=0;html=1;align=center;verticalAlign=middle;strokeWidth=4;fontSize=21;" parent="75" connectable="0" vertex="1">
                    <mxGeometry relative="1" as="geometry"/>
                </mxCell>
                <mxCell id="77" value="" style="endArrow=classic;html=1;fontSize=21;strokeWidth=3;" parent="1" edge="1">
                    <mxGeometry relative="1" as="geometry">
                        <mxPoint x="1430" y="250.13" as="sourcePoint"/>
                        <mxPoint x="1590" y="250" as="targetPoint"/>
                    </mxGeometry>
                </mxCell>
                <mxCell id="78" value="jump_pc(32)" style="edgeLabel;resizable=0;html=1;align=center;verticalAlign=middle;strokeWidth=4;fontSize=21;" parent="77" connectable="0" vertex="1">
                    <mxGeometry relative="1" as="geometry">
                        <mxPoint x="5" as="offset"/>
                    </mxGeometry>
                </mxCell>
                <mxCell id="79" value="" style="endArrow=classic;html=1;fontSize=21;strokeWidth=3;entryX=-0.025;entryY=0.605;entryDx=0;entryDy=0;entryPerimeter=0;" parent="1" edge="1">
                    <mxGeometry relative="1" as="geometry">
                        <mxPoint x="1700" y="311" as="sourcePoint"/>
                        <mxPoint x="1856" y="311.35" as="targetPoint"/>
                    </mxGeometry>
                </mxCell>
                <mxCell id="80" value="pc(32)" style="edgeLabel;resizable=0;html=1;align=center;verticalAlign=middle;strokeWidth=4;fontSize=21;" parent="79" connectable="0" vertex="1">
                    <mxGeometry relative="1" as="geometry"/>
                </mxCell>
                <mxCell id="81" value="" style="endArrow=classic;html=1;fontSize=21;fillColor=#1ba1e2;strokeColor=#006EAF;strokeWidth=3;exitX=0.982;exitY=0.385;exitDx=0;exitDy=0;exitPerimeter=0;" parent="1" source="448" edge="1">
                    <mxGeometry relative="1" as="geometry">
                        <mxPoint x="1430" y="360" as="sourcePoint"/>
                        <mxPoint x="1590" y="360" as="targetPoint"/>
                    </mxGeometry>
                </mxCell>
                <mxCell id="82" value="jump_en" style="edgeLabel;resizable=0;html=1;align=center;verticalAlign=middle;strokeWidth=4;fontSize=21;" parent="81" connectable="0" vertex="1">
                    <mxGeometry relative="1" as="geometry">
                        <mxPoint as="offset"/>
                    </mxGeometry>
                </mxCell>
                <mxCell id="88" value="" style="shape=flexArrow;endArrow=classic;html=1;fontSize=21;fillColor=#bac8d3;strokeColor=#23445d;" parent="1" edge="1">
                    <mxGeometry width="50" height="50" relative="1" as="geometry">
                        <mxPoint x="120" y="40" as="sourcePoint"/>
                        <mxPoint x="120" y="1540" as="targetPoint"/>
                    </mxGeometry>
                </mxCell>
                <mxCell id="90" value="" style="shape=flexArrow;endArrow=classic;html=1;fontSize=21;fillColor=#bac8d3;strokeColor=#23445d;" parent="1" edge="1">
                    <mxGeometry width="50" height="50" relative="1" as="geometry">
                        <mxPoint x="2170" y="47" as="sourcePoint"/>
                        <mxPoint x="120" y="40" as="targetPoint"/>
                    </mxGeometry>
                </mxCell>
                <mxCell id="91" value="" style="shape=flexArrow;endArrow=classic;html=1;fontSize=21;fillColor=#bac8d3;strokeColor=#23445d;" parent="1" edge="1">
                    <mxGeometry width="50" height="50" relative="1" as="geometry">
                        <mxPoint x="2170" y="310" as="sourcePoint"/>
                        <mxPoint x="2170" y="50" as="targetPoint"/>
                    </mxGeometry>
                </mxCell>
                <mxCell id="92" value="inst(32)" style="text;html=1;align=center;verticalAlign=middle;resizable=0;points=[];autosize=1;strokeColor=none;fillColor=none;fontSize=21;" parent="1" vertex="1">
                    <mxGeometry x="2190" y="170" width="90" height="40" as="geometry"/>
                </mxCell>
                <mxCell id="93" value="&lt;b&gt;&lt;font style=&quot;font-size: 30px;&quot;&gt;IFU&lt;/font&gt;&lt;/b&gt;" style="text;html=1;align=center;verticalAlign=middle;resizable=0;points=[];autosize=1;strokeColor=none;fillColor=none;fontSize=21;" parent="1" vertex="1">
                    <mxGeometry x="1905" y="220" width="70" height="50" as="geometry"/>
                </mxCell>
                <mxCell id="94" value="" style="rounded=0;whiteSpace=wrap;html=1;strokeWidth=4;fontSize=30;direction=south;" parent="1" vertex="1">
                    <mxGeometry x="371.25" y="180" width="168.75" height="580" as="geometry"/>
                </mxCell>
                <mxCell id="95" value="&lt;p style=&quot;line-height: 160%; font-size: 30px;&quot;&gt;IDU&lt;/p&gt;" style="text;html=1;align=center;verticalAlign=middle;resizable=0;points=[];autosize=1;strokeColor=none;fillColor=none;strokeWidth=4;perimeterSpacing=4;fontSize=30;fontStyle=1" parent="1" vertex="1">
                    <mxGeometry x="410" y="100" width="80" height="120" as="geometry"/>
                </mxCell>
                <mxCell id="96" value="" style="shape=flexArrow;endArrow=classic;html=1;fontSize=30;fillColor=#bac8d3;strokeColor=#23445d;" parent="1" edge="1">
                    <mxGeometry width="50" height="50" relative="1" as="geometry">
                        <mxPoint x="120" y="440" as="sourcePoint"/>
                        <mxPoint x="370" y="440" as="targetPoint"/>
                        <Array as="points">
                            <mxPoint x="170" y="440"/>
                            <mxPoint x="210" y="440"/>
                            <mxPoint x="240" y="440"/>
                        </Array>
                    </mxGeometry>
                </mxCell>
                <mxCell id="102" value="" style="endArrow=classic;html=1;fontSize=30;fillColor=#1ba1e2;strokeColor=#006EAF;strokeWidth=3;" parent="1" edge="1">
                    <mxGeometry relative="1" as="geometry">
                        <mxPoint x="540" y="340.00000000000006" as="sourcePoint"/>
                        <mxPoint x="720" y="340.00000000000006" as="targetPoint"/>
                    </mxGeometry>
                </mxCell>
                <mxCell id="103" value="mem_rd_en" style="edgeLabel;resizable=0;html=1;align=center;verticalAlign=middle;strokeWidth=4;fontSize=21;" parent="102" connectable="0" vertex="1">
                    <mxGeometry relative="1" as="geometry"/>
                </mxCell>
                <mxCell id="132" value="inst[31:0]" style="edgeLabel;resizable=0;html=1;align=center;verticalAlign=middle;strokeWidth=4;fontSize=21;" parent="1" connectable="0" vertex="1">
                    <mxGeometry x="219.99980988713872" y="439.9996186854992" as="geometry"/>
                </mxCell>
                <mxCell id="134" value="" style="shape=flexArrow;endArrow=classic;html=1;fontSize=30;startArrow=none;fillColor=#bac8d3;strokeColor=#23445d;" parent="1" source="141" edge="1">
                    <mxGeometry width="50" height="50" relative="1" as="geometry">
                        <mxPoint x="190" y="1277.015873015873" as="sourcePoint"/>
                        <mxPoint x="362" y="1276" as="targetPoint"/>
                        <Array as="points">
                            <mxPoint x="182" y="1276"/>
                            <mxPoint x="222" y="1276"/>
                            <mxPoint x="252" y="1276"/>
                        </Array>
                    </mxGeometry>
                </mxCell>
                <mxCell id="135" value="" style="shape=flexArrow;endArrow=classic;html=1;fontSize=30;startArrow=none;fillColor=#bac8d3;strokeColor=#23445d;" parent="1" source="144" edge="1">
                    <mxGeometry width="50" height="50" relative="1" as="geometry">
                        <mxPoint x="139" y="1334" as="sourcePoint"/>
                        <mxPoint x="359" y="1334" as="targetPoint"/>
                        <Array as="points">
                            <mxPoint x="179" y="1334"/>
                            <mxPoint x="219" y="1334"/>
                            <mxPoint x="249" y="1334"/>
                        </Array>
                    </mxGeometry>
                </mxCell>
                <mxCell id="145" value="" style="shape=flexArrow;endArrow=none;html=1;fontSize=30;fillColor=#bac8d3;strokeColor=#23445d;" parent="1" edge="1">
                    <mxGeometry width="50" height="50" relative="1" as="geometry">
                        <mxPoint x="120" y="1334" as="sourcePoint"/>
                        <mxPoint x="179" y="1334" as="targetPoint"/>
                        <Array as="points"/>
                    </mxGeometry>
                </mxCell>
                <mxCell id="144" value="&lt;span style=&quot;color: rgb(240, 240, 240); font-family: Helvetica; font-size: 21px; font-style: normal; font-variant-ligatures: normal; font-variant-caps: normal; font-weight: 400; letter-spacing: normal; orphans: 2; text-align: center; text-indent: 0px; text-transform: none; widows: 2; word-spacing: 0px; -webkit-text-stroke-width: 0px; background-color: rgb(24, 20, 29); text-decoration-thickness: initial; text-decoration-style: initial; text-decoration-color: initial; float: none; display: inline !important;&quot;&gt;inst[11:7]&lt;/span&gt;" style="text;whiteSpace=wrap;html=1;fontSize=21;" parent="1" vertex="1">
                    <mxGeometry x="179" y="1314" width="120" height="50" as="geometry"/>
                </mxCell>
                <mxCell id="150" value="" style="rounded=0;whiteSpace=wrap;html=1;strokeWidth=3;fontSize=21;" parent="1" vertex="1">
                    <mxGeometry x="373.25" y="860" width="167.5" height="83" as="geometry"/>
                </mxCell>
                <mxCell id="151" value="&lt;p style=&quot;line-height: 160%; font-size: 30px;&quot;&gt;IMM&lt;/p&gt;" style="text;html=1;align=center;verticalAlign=middle;resizable=0;points=[];autosize=1;strokeColor=none;fillColor=none;strokeWidth=4;perimeterSpacing=4;fontSize=30;fontStyle=1" parent="1" vertex="1">
                    <mxGeometry x="417" y="780" width="80" height="120" as="geometry"/>
                </mxCell>
                <mxCell id="154" value="" style="shape=flexArrow;endArrow=classic;html=1;fontSize=30;startArrow=none;fillColor=#bac8d3;strokeColor=#23445d;entryX=-0.003;entryY=0.425;entryDx=0;entryDy=0;entryPerimeter=0;" parent="1" source="155" edge="1">
                    <mxGeometry width="50" height="50" relative="1" as="geometry">
                        <mxPoint x="140" y="898.89" as="sourcePoint"/>
                        <mxPoint x="371.99749999999995" y="898.7750000000001" as="targetPoint"/>
                        <Array as="points">
                            <mxPoint x="170" y="898.89"/>
                            <mxPoint x="210" y="898.89"/>
                            <mxPoint x="230" y="900"/>
                            <mxPoint x="240" y="898.89"/>
                        </Array>
                    </mxGeometry>
                </mxCell>
                <mxCell id="155" value="&lt;span style=&quot;color: rgb(240, 240, 240); font-family: Helvetica; font-size: 21px; font-style: normal; font-variant-ligatures: normal; font-variant-caps: normal; font-weight: 400; letter-spacing: normal; orphans: 2; text-align: center; text-indent: 0px; text-transform: none; widows: 2; word-spacing: 0px; -webkit-text-stroke-width: 0px; background-color: rgb(24, 20, 29); text-decoration-thickness: initial; text-decoration-style: initial; text-decoration-color: initial; float: none; display: inline !important;&quot;&gt;inst[31:0]&lt;/span&gt;" style="text;whiteSpace=wrap;html=1;fontSize=21;" parent="1" vertex="1">
                    <mxGeometry x="170" y="880" width="120" height="50" as="geometry"/>
                </mxCell>
                <mxCell id="158" value="" style="endArrow=classic;html=1;strokeWidth=3;fontSize=21;" parent="1" edge="1">
                    <mxGeometry relative="1" as="geometry">
                        <mxPoint x="540.75" y="901.9308510638298" as="sourcePoint"/>
                        <mxPoint x="720.75" y="900" as="targetPoint"/>
                        <Array as="points"/>
                    </mxGeometry>
                </mxCell>
                <mxCell id="159" value="immout(32)" style="edgeLabel;resizable=0;html=1;align=center;verticalAlign=middle;strokeWidth=3;fontSize=21;" parent="158" connectable="0" vertex="1">
                    <mxGeometry relative="1" as="geometry"/>
                </mxCell>
                <mxCell id="162" value="&lt;p style=&quot;line-height: 160%; font-size: 30px;&quot;&gt;BSU&lt;/p&gt;" style="text;html=1;align=center;verticalAlign=middle;resizable=0;points=[];autosize=1;strokeColor=none;fillColor=none;strokeWidth=4;perimeterSpacing=4;fontSize=30;fontStyle=1" parent="1" vertex="1">
                    <mxGeometry x="1189.3700000000001" y="870" width="90" height="120" as="geometry"/>
                </mxCell>
                <mxCell id="163" value="" style="endArrow=classic;html=1;strokeWidth=3;fontSize=21;" parent="1" edge="1">
                    <mxGeometry relative="1" as="geometry">
                        <mxPoint x="980" y="1019.98" as="sourcePoint"/>
                        <mxPoint x="1150" y="1019.8" as="targetPoint"/>
                    </mxGeometry>
                </mxCell>
                <mxCell id="164" value="rs1(32)" style="edgeLabel;resizable=0;html=1;align=center;verticalAlign=middle;strokeWidth=3;fontSize=21;" parent="163" connectable="0" vertex="1">
                    <mxGeometry relative="1" as="geometry"/>
                </mxCell>
                <mxCell id="165" value="" style="endArrow=classic;html=1;strokeWidth=3;fontSize=21;" parent="1" edge="1">
                    <mxGeometry relative="1" as="geometry">
                        <mxPoint x="980" y="1069.8" as="sourcePoint"/>
                        <mxPoint x="1150" y="1069.8" as="targetPoint"/>
                    </mxGeometry>
                </mxCell>
                <mxCell id="166" value="rs2(32)" style="edgeLabel;resizable=0;html=1;align=center;verticalAlign=middle;strokeWidth=3;fontSize=21;" parent="165" connectable="0" vertex="1">
                    <mxGeometry relative="1" as="geometry"/>
                </mxCell>
                <mxCell id="167" value="" style="endArrow=classic;html=1;strokeWidth=3;fontSize=21;fillColor=#1ba1e2;strokeColor=#006EAF;" parent="1" edge="1">
                    <mxGeometry relative="1" as="geometry">
                        <mxPoint x="970" y="974.5999999999999" as="sourcePoint"/>
                        <mxPoint x="1150" y="975.01" as="targetPoint"/>
                    </mxGeometry>
                </mxCell>
                <mxCell id="168" value="branch_type(3)" style="edgeLabel;resizable=0;html=1;align=center;verticalAlign=middle;strokeWidth=3;fontSize=21;" parent="167" connectable="0" vertex="1">
                    <mxGeometry relative="1" as="geometry">
                        <mxPoint y="-5" as="offset"/>
                    </mxGeometry>
                </mxCell>
                <mxCell id="170" value="" style="endArrow=classic;html=1;strokeWidth=3;fontSize=21;fillColor=#1ba1e2;strokeColor=#006EAF;" parent="1" edge="1">
                    <mxGeometry relative="1" as="geometry">
                        <mxPoint x="1318.75" y="1024.6" as="sourcePoint"/>
                        <mxPoint x="1480" y="1025" as="targetPoint"/>
                    </mxGeometry>
                </mxCell>
                <mxCell id="171" value="jump_branch" style="edgeLabel;resizable=0;html=1;align=center;verticalAlign=middle;strokeWidth=3;fontSize=21;" parent="170" connectable="0" vertex="1">
                    <mxGeometry relative="1" as="geometry">
                        <mxPoint x="-4" as="offset"/>
                    </mxGeometry>
                </mxCell>
                <mxCell id="199" value="" style="endArrow=classic;html=1;fontSize=21;fillColor=#1ba1e2;strokeColor=#006EAF;strokeWidth=3;" parent="1" edge="1">
                    <mxGeometry relative="1" as="geometry">
                        <mxPoint x="540" y="669.8300000000002" as="sourcePoint"/>
                        <mxPoint x="720" y="669.8300000000002" as="targetPoint"/>
                    </mxGeometry>
                </mxCell>
                <mxCell id="200" value="alu_a_sel" style="edgeLabel;resizable=0;html=1;align=center;verticalAlign=middle;fontSize=21;" parent="199" connectable="0" vertex="1">
                    <mxGeometry relative="1" as="geometry"/>
                </mxCell>
                <mxCell id="201" value="" style="endArrow=classic;html=1;fontSize=21;fillColor=#1ba1e2;strokeColor=#006EAF;strokeWidth=3;" parent="1" edge="1">
                    <mxGeometry relative="1" as="geometry">
                        <mxPoint x="540" y="709.8300000000002" as="sourcePoint"/>
                        <mxPoint x="720" y="710.3300000000002" as="targetPoint"/>
                    </mxGeometry>
                </mxCell>
                <mxCell id="202" value="alu_b_sel(2)" style="edgeLabel;resizable=0;html=1;align=center;verticalAlign=middle;fontSize=21;" parent="201" connectable="0" vertex="1">
                    <mxGeometry relative="1" as="geometry"/>
                </mxCell>
                <mxCell id="203" value="" style="endArrow=classic;html=1;strokeWidth=3;fontSize=21;fillColor=#1ba1e2;strokeColor=#006EAF;" parent="1" edge="1">
                    <mxGeometry relative="1" as="geometry">
                        <mxPoint x="540" y="200" as="sourcePoint"/>
                        <mxPoint x="720" y="200.41000000000008" as="targetPoint"/>
                    </mxGeometry>
                </mxCell>
                <mxCell id="204" value="branch_type(3)" style="edgeLabel;resizable=0;html=1;align=center;verticalAlign=middle;strokeWidth=3;fontSize=21;" parent="203" connectable="0" vertex="1">
                    <mxGeometry relative="1" as="geometry"/>
                </mxCell>
                <mxCell id="205" value="" style="endArrow=classic;html=1;strokeWidth=3;fontSize=21;fillColor=#1ba1e2;strokeColor=#006EAF;" parent="1" edge="1">
                    <mxGeometry relative="1" as="geometry">
                        <mxPoint x="540" y="230.00000000000006" as="sourcePoint"/>
                        <mxPoint x="720.0000000000002" y="230.00000000000006" as="targetPoint"/>
                    </mxGeometry>
                </mxCell>
                <mxCell id="206" value="w_csr_en" style="edgeLabel;resizable=0;html=1;align=center;verticalAlign=middle;strokeWidth=3;fontSize=21;" parent="205" connectable="0" vertex="1">
                    <mxGeometry relative="1" as="geometry"/>
                </mxCell>
                <mxCell id="219" value="" style="endArrow=classic;html=1;fontSize=21;fillColor=#1ba1e2;strokeColor=#006EAF;strokeWidth=3;" parent="1" edge="1">
                    <mxGeometry relative="1" as="geometry">
                        <mxPoint x="540" y="589.83" as="sourcePoint"/>
                        <mxPoint x="720" y="589.83" as="targetPoint"/>
                        <Array as="points">
                            <mxPoint x="540" y="589.83"/>
                        </Array>
                    </mxGeometry>
                </mxCell>
                <mxCell id="220" value="w_sel(2)" style="edgeLabel;resizable=0;html=1;align=center;verticalAlign=middle;fontSize=21;" parent="219" connectable="0" vertex="1">
                    <mxGeometry relative="1" as="geometry"/>
                </mxCell>
                <mxCell id="224" value="" style="endArrow=classic;html=1;fontSize=21;fillColor=#1ba1e2;strokeColor=#006EAF;strokeWidth=3;" parent="1" edge="1">
                    <mxGeometry relative="1" as="geometry">
                        <mxPoint x="540" y="419.34999999999997" as="sourcePoint"/>
                        <mxPoint x="720" y="419.34999999999997" as="targetPoint"/>
                    </mxGeometry>
                </mxCell>
                <mxCell id="225" value="mem_rd_ctrl(3)" style="edgeLabel;resizable=0;html=1;align=center;verticalAlign=middle;strokeWidth=4;fontSize=21;" parent="224" connectable="0" vertex="1">
                    <mxGeometry relative="1" as="geometry"/>
                </mxCell>
                <mxCell id="226" value="" style="endArrow=classic;html=1;fontSize=21;fillColor=#1ba1e2;strokeColor=#006EAF;strokeWidth=3;" parent="1" edge="1">
                    <mxGeometry relative="1" as="geometry">
                        <mxPoint x="540" y="379.34999999999997" as="sourcePoint"/>
                        <mxPoint x="720" y="379.34999999999997" as="targetPoint"/>
                    </mxGeometry>
                </mxCell>
                <mxCell id="227" value="mem_wr_ctrl(8)" style="edgeLabel;resizable=0;html=1;align=center;verticalAlign=middle;strokeWidth=4;fontSize=21;" parent="226" connectable="0" vertex="1">
                    <mxGeometry relative="1" as="geometry"/>
                </mxCell>
                <mxCell id="228" value="" style="endArrow=classic;html=1;strokeWidth=3;fontSize=21;fillColor=#1ba1e2;strokeColor=#006EAF;exitX=0.895;exitY=0;exitDx=0;exitDy=0;exitPerimeter=0;" parent="1" edge="1">
                    <mxGeometry relative="1" as="geometry">
                        <mxPoint x="540" y="260.09999999999997" as="sourcePoint"/>
                        <mxPoint x="720" y="260.00000000000006" as="targetPoint"/>
                    </mxGeometry>
                </mxCell>
                <mxCell id="229" value="r_csr_en" style="edgeLabel;resizable=0;html=1;align=center;verticalAlign=middle;strokeWidth=3;fontSize=21;" parent="228" connectable="0" vertex="1">
                    <mxGeometry relative="1" as="geometry"/>
                </mxCell>
                <mxCell id="236" value="&lt;p style=&quot;line-height: 160%; font-size: 30px;&quot;&gt;MEM&lt;/p&gt;" style="text;html=1;align=center;verticalAlign=middle;resizable=0;points=[];autosize=1;strokeColor=none;fillColor=none;strokeWidth=4;perimeterSpacing=4;fontSize=30;fontStyle=1" parent="1" vertex="1">
                    <mxGeometry x="1840" y="520" width="90" height="120" as="geometry"/>
                </mxCell>
                <mxCell id="240" style="edgeStyle=none;html=1;strokeWidth=4;" parent="1" edge="1">
                    <mxGeometry relative="1" as="geometry">
                        <mxPoint x="1939.5" y="330" as="sourcePoint"/>
                        <mxPoint x="1939.5" y="600" as="targetPoint"/>
                    </mxGeometry>
                </mxCell>
                <mxCell id="241" value="&lt;font style=&quot;font-size: 18px;&quot;&gt;DPI_C pmem_read&lt;/font&gt;" style="text;html=1;align=center;verticalAlign=middle;resizable=0;points=[];autosize=1;strokeColor=none;fillColor=none;strokeWidth=2;" parent="1" vertex="1">
                    <mxGeometry x="1940" y="420" width="180" height="40" as="geometry"/>
                </mxCell>
                <mxCell id="244" value="" style="shape=flexArrow;endArrow=none;html=1;fontSize=30;entryX=-0.005;entryY=0.394;entryDx=0;entryDy=0;entryPerimeter=0;fillColor=#bac8d3;strokeColor=#23445d;" parent="1" target="155" edge="1">
                    <mxGeometry width="50" height="50" relative="1" as="geometry">
                        <mxPoint x="130" y="900" as="sourcePoint"/>
                        <mxPoint x="170" y="900" as="targetPoint"/>
                        <Array as="points"/>
                    </mxGeometry>
                </mxCell>
                <mxCell id="246" value="" style="endArrow=classic;html=1;fontSize=21;fillColor=#1ba1e2;strokeColor=#006EAF;strokeWidth=2;" parent="1" edge="1">
                    <mxGeometry relative="1" as="geometry">
                        <mxPoint x="1650" y="758" as="sourcePoint"/>
                        <mxPoint x="1830" y="758" as="targetPoint"/>
                    </mxGeometry>
                </mxCell>
                <mxCell id="247" value="mem_rd_en" style="edgeLabel;resizable=0;html=1;align=center;verticalAlign=middle;strokeWidth=4;fontSize=21;" parent="246" connectable="0" vertex="1">
                    <mxGeometry relative="1" as="geometry"/>
                </mxCell>
                <mxCell id="248" value="" style="endArrow=classic;html=1;fontSize=21;fillColor=#1ba1e2;strokeColor=#006EAF;strokeWidth=2;" parent="1" edge="1">
                    <mxGeometry relative="1" as="geometry">
                        <mxPoint x="1650" y="798" as="sourcePoint"/>
                        <mxPoint x="1830" y="798" as="targetPoint"/>
                    </mxGeometry>
                </mxCell>
                <mxCell id="249" value="mem_wr_en" style="edgeLabel;resizable=0;html=1;align=center;verticalAlign=middle;strokeWidth=4;fontSize=21;" parent="248" connectable="0" vertex="1">
                    <mxGeometry relative="1" as="geometry"/>
                </mxCell>
                <mxCell id="250" value="" style="endArrow=classic;html=1;fontSize=21;strokeWidth=2;fillColor=#d80073;strokeColor=#A50040;" parent="1" edge="1">
                    <mxGeometry relative="1" as="geometry">
                        <mxPoint x="1610" y="1110" as="sourcePoint"/>
                        <mxPoint x="1830" y="1110" as="targetPoint"/>
                    </mxGeometry>
                </mxCell>
                <mxCell id="251" value="mem_wr_addr(32)" style="edgeLabel;resizable=0;html=1;align=center;verticalAlign=middle;strokeWidth=4;fontSize=21;" parent="250" connectable="0" vertex="1">
                    <mxGeometry relative="1" as="geometry"/>
                </mxCell>
                <mxCell id="254" value="" style="shape=flexArrow;endArrow=none;html=1;fontSize=30;fillColor=#bac8d3;strokeColor=#23445d;" parent="1" edge="1">
                    <mxGeometry width="50" height="50" relative="1" as="geometry">
                        <mxPoint x="120" y="1276" as="sourcePoint"/>
                        <mxPoint x="182" y="1276" as="targetPoint"/>
                        <Array as="points">
                            <mxPoint x="162" y="1276"/>
                        </Array>
                    </mxGeometry>
                </mxCell>
                <mxCell id="255" value="" style="endArrow=classic;html=1;strokeWidth=3;fontSize=21;fillColor=#1ba1e2;strokeColor=#006EAF;exitX=0.895;exitY=0;exitDx=0;exitDy=0;exitPerimeter=0;" parent="1" edge="1">
                    <mxGeometry relative="1" as="geometry">
                        <mxPoint x="540" y="629.93" as="sourcePoint"/>
                        <mxPoint x="720" y="629.83" as="targetPoint"/>
                    </mxGeometry>
                </mxCell>
                <mxCell id="256" value="w_en" style="edgeLabel;resizable=0;html=1;align=center;verticalAlign=middle;strokeWidth=3;fontSize=21;" parent="255" connectable="0" vertex="1">
                    <mxGeometry relative="1" as="geometry"/>
                </mxCell>
                <mxCell id="257" value="" style="endArrow=classic;html=1;fontSize=30;fillColor=#1ba1e2;strokeColor=#006EAF;strokeWidth=3;" parent="1" edge="1">
                    <mxGeometry relative="1" as="geometry">
                        <mxPoint x="540" y="549.83" as="sourcePoint"/>
                        <mxPoint x="720" y="549.83" as="targetPoint"/>
                    </mxGeometry>
                </mxCell>
                <mxCell id="258" value="jump_jtype" style="edgeLabel;resizable=0;html=1;align=center;verticalAlign=middle;strokeWidth=4;fontSize=21;" parent="257" connectable="0" vertex="1">
                    <mxGeometry relative="1" as="geometry"/>
                </mxCell>
                <mxCell id="259" value="" style="endArrow=classic;html=1;fontSize=30;fillColor=#1ba1e2;strokeColor=#006EAF;strokeWidth=3;" parent="1" edge="1">
                    <mxGeometry relative="1" as="geometry">
                        <mxPoint x="540" y="509.83000000000004" as="sourcePoint"/>
                        <mxPoint x="720" y="509.83000000000004" as="targetPoint"/>
                    </mxGeometry>
                </mxCell>
                <mxCell id="260" value="jump_ecall" style="edgeLabel;resizable=0;html=1;align=center;verticalAlign=middle;strokeWidth=4;fontSize=21;" parent="259" connectable="0" vertex="1">
                    <mxGeometry relative="1" as="geometry"/>
                </mxCell>
                <mxCell id="261" value="" style="endArrow=classic;html=1;fontSize=30;fillColor=#1ba1e2;strokeColor=#006EAF;strokeWidth=3;" parent="1" edge="1">
                    <mxGeometry relative="1" as="geometry">
                        <mxPoint x="540" y="469.5" as="sourcePoint"/>
                        <mxPoint x="720" y="469.5" as="targetPoint"/>
                    </mxGeometry>
                </mxCell>
                <mxCell id="262" value="jump_mret" style="edgeLabel;resizable=0;html=1;align=center;verticalAlign=middle;strokeWidth=4;fontSize=21;" parent="261" connectable="0" vertex="1">
                    <mxGeometry relative="1" as="geometry"/>
                </mxCell>
                <mxCell id="263" value="" style="endArrow=classic;html=1;strokeWidth=3;fontSize=21;fillColor=#1ba1e2;strokeColor=#006EAF;" parent="1" edge="1">
                    <mxGeometry relative="1" as="geometry">
                        <mxPoint x="540" y="750" as="sourcePoint"/>
                        <mxPoint x="720" y="750.4099999999999" as="targetPoint"/>
                    </mxGeometry>
                </mxCell>
                <mxCell id="264" value="alu_func(4)" style="edgeLabel;resizable=0;html=1;align=center;verticalAlign=middle;strokeWidth=3;fontSize=21;" parent="263" connectable="0" vertex="1">
                    <mxGeometry relative="1" as="geometry"/>
                </mxCell>
                <mxCell id="265" value="" style="endArrow=classic;html=1;fontSize=30;fillColor=#1ba1e2;strokeColor=#006EAF;strokeWidth=3;" parent="1" edge="1">
                    <mxGeometry relative="1" as="geometry">
                        <mxPoint x="540" y="299.35" as="sourcePoint"/>
                        <mxPoint x="720" y="299.35" as="targetPoint"/>
                    </mxGeometry>
                </mxCell>
                <mxCell id="266" value="mem_wr_en" style="edgeLabel;resizable=0;html=1;align=center;verticalAlign=middle;strokeWidth=4;fontSize=21;" parent="265" connectable="0" vertex="1">
                    <mxGeometry relative="1" as="geometry"/>
                </mxCell>
                <mxCell id="279" value="CSR" style="text;html=1;align=center;verticalAlign=middle;resizable=0;points=[];autosize=1;strokeColor=none;fillColor=none;fontSize=30;fontStyle=1" parent="1" vertex="1">
                    <mxGeometry x="1270" y="1200" width="90" height="50" as="geometry"/>
                </mxCell>
                <mxCell id="311" value="" style="group" parent="1" vertex="1" connectable="0">
                    <mxGeometry x="1210" y="1240" width="220" height="360" as="geometry"/>
                </mxCell>
                <mxCell id="312" value="" style="rounded=0;whiteSpace=wrap;html=1;strokeWidth=3;" parent="311" vertex="1">
                    <mxGeometry width="220.00000000000003" height="359.99999999999994" as="geometry"/>
                </mxCell>
                <mxCell id="313" value="" style="group" parent="311" vertex="1" connectable="0">
                    <mxGeometry x="62.85714285714287" y="47.36842105263158" width="78.57142857142858" height="265.2631578947369" as="geometry"/>
                </mxCell>
                <mxCell id="314" value="" style="rounded=0;whiteSpace=wrap;html=1;direction=south;fontStyle=0;strokeWidth=3;container=0;" parent="313" vertex="1">
                    <mxGeometry width="78.57142857142858" height="265.2631578947369" as="geometry"/>
                </mxCell>
                <mxCell id="315" value="" style="endArrow=none;html=1;fontStyle=0;strokeWidth=3;" parent="313" target="314" edge="1">
                    <mxGeometry width="50" height="50" relative="1" as="geometry">
                        <mxPoint y="34.22750424448217" as="sourcePoint"/>
                        <mxPoint x="39.28571428571429" y="34.22750424448217" as="targetPoint"/>
                        <Array as="points">
                            <mxPoint x="78.57142857142858" y="34.22750424448217"/>
                        </Array>
                    </mxGeometry>
                </mxCell>
                <mxCell id="316" value="" style="endArrow=none;html=1;fontStyle=0;strokeWidth=3;" parent="313" edge="1">
                    <mxGeometry width="50" height="50" relative="1" as="geometry">
                        <mxPoint y="68.45500848896434" as="sourcePoint"/>
                        <mxPoint x="78.57142857142858" y="68.45500848896496" as="targetPoint"/>
                        <Array as="points">
                            <mxPoint x="39.28571428571429" y="68.45500848896434"/>
                            <mxPoint x="78.57142857142858" y="68.45500848896434"/>
                        </Array>
                    </mxGeometry>
                </mxCell>
                <mxCell id="317" value="" style="endArrow=none;html=1;fontStyle=0;strokeWidth=3;" parent="313" edge="1">
                    <mxGeometry width="50" height="50" relative="1" as="geometry">
                        <mxPoint y="102.68251273344652" as="sourcePoint"/>
                        <mxPoint x="78.57142857142858" y="102.68251273344711" as="targetPoint"/>
                        <Array as="points">
                            <mxPoint x="78.57142857142858" y="102.68251273344652"/>
                        </Array>
                    </mxGeometry>
                </mxCell>
                <mxCell id="318" value="" style="endArrow=none;html=1;fontStyle=0;strokeWidth=3;" parent="313" edge="1">
                    <mxGeometry width="50" height="50" relative="1" as="geometry">
                        <mxPoint y="136.91001697792868" as="sourcePoint"/>
                        <mxPoint x="78.57142857142858" y="136.9100169779293" as="targetPoint"/>
                        <Array as="points">
                            <mxPoint x="78.57142857142858" y="136.91001697792868"/>
                        </Array>
                    </mxGeometry>
                </mxCell>
                <mxCell id="319" value="" style="endArrow=none;html=1;fontStyle=0;strokeWidth=3;" parent="313" edge="1">
                    <mxGeometry width="50" height="50" relative="1" as="geometry">
                        <mxPoint y="171.13752122241084" as="sourcePoint"/>
                        <mxPoint x="78.57142857142858" y="171.1375212224115" as="targetPoint"/>
                        <Array as="points">
                            <mxPoint x="78.57142857142858" y="171.13752122241084"/>
                        </Array>
                    </mxGeometry>
                </mxCell>
                <mxCell id="320" value="" style="endArrow=none;html=1;fontStyle=0;strokeWidth=3;" parent="313" edge="1">
                    <mxGeometry width="50" height="50" relative="1" as="geometry">
                        <mxPoint y="200.8384380305603" as="sourcePoint"/>
                        <mxPoint x="78.57142857142858" y="200.8384380305609" as="targetPoint"/>
                        <Array as="points">
                            <mxPoint x="78.57142857142858" y="200.8384380305603"/>
                        </Array>
                    </mxGeometry>
                </mxCell>
                <mxCell id="321" value="" style="endArrow=none;html=1;fontStyle=0;strokeWidth=3;" parent="313" edge="1">
                    <mxGeometry width="50" height="50" relative="1" as="geometry">
                        <mxPoint y="231.0356536502547" as="sourcePoint"/>
                        <mxPoint x="78.57142857142858" y="231.0356536502553" as="targetPoint"/>
                        <Array as="points">
                            <mxPoint x="78.57142857142858" y="231.0356536502547"/>
                        </Array>
                    </mxGeometry>
                </mxCell>
                <mxCell id="322" value="" style="endArrow=none;html=1;entryX=0;entryY=0.5;entryDx=0;entryDy=0;exitX=1;exitY=0.5;exitDx=0;exitDy=0;strokeWidth=3;" parent="313" source="314" target="314" edge="1">
                    <mxGeometry width="50" height="50" relative="1" as="geometry">
                        <mxPoint x="44.19642857142857" y="282.37691001697794" as="sourcePoint"/>
                        <mxPoint x="68.75" y="239.59252971137525" as="targetPoint"/>
                    </mxGeometry>
                </mxCell>
                <mxCell id="323" value="" style="group" parent="1" vertex="1" connectable="0">
                    <mxGeometry x="1830" y="600" width="240" height="570" as="geometry"/>
                </mxCell>
                <mxCell id="5" value="" style="rounded=0;whiteSpace=wrap;html=1;direction=south;strokeWidth=4;container=0;" parent="323" vertex="1">
                    <mxGeometry width="240" height="570" as="geometry"/>
                </mxCell>
                <mxCell id="7" value="" style="endArrow=none;html=1;strokeWidth=4;" parent="323" target="5" edge="1">
                    <mxGeometry width="50" height="50" relative="1" as="geometry">
                        <mxPoint y="173.4782608695652" as="sourcePoint"/>
                        <mxPoint x="120" y="173.4782608695652" as="targetPoint"/>
                        <Array as="points">
                            <mxPoint x="240" y="173.4782608695652"/>
                        </Array>
                    </mxGeometry>
                </mxCell>
                <mxCell id="8" value="" style="endArrow=none;html=1;strokeWidth=4;" parent="323" edge="1">
                    <mxGeometry width="50" height="50" relative="1" as="geometry">
                        <mxPoint y="206.52173913043475" as="sourcePoint"/>
                        <mxPoint x="239.99999999999943" y="206.5217391304352" as="targetPoint"/>
                        <Array as="points">
                            <mxPoint x="120" y="206.52173913043475"/>
                            <mxPoint x="240" y="206.52173913043475"/>
                        </Array>
                    </mxGeometry>
                </mxCell>
                <mxCell id="9" value="" style="endArrow=none;html=1;strokeWidth=4;" parent="323" edge="1">
                    <mxGeometry width="50" height="50" relative="1" as="geometry">
                        <mxPoint y="239.5652173913043" as="sourcePoint"/>
                        <mxPoint x="239.99999999999943" y="239.5652173913048" as="targetPoint"/>
                        <Array as="points">
                            <mxPoint x="240" y="239.5652173913043"/>
                        </Array>
                    </mxGeometry>
                </mxCell>
                <mxCell id="10" value="" style="endArrow=none;html=1;strokeWidth=4;" parent="323" edge="1">
                    <mxGeometry width="50" height="50" relative="1" as="geometry">
                        <mxPoint y="272.6086956521739" as="sourcePoint"/>
                        <mxPoint x="239.99999999999943" y="272.60869565217445" as="targetPoint"/>
                        <Array as="points">
                            <mxPoint x="240" y="272.6086956521739"/>
                        </Array>
                    </mxGeometry>
                </mxCell>
                <mxCell id="11" value="" style="endArrow=none;html=1;strokeWidth=4;" parent="323" edge="1">
                    <mxGeometry width="50" height="50" relative="1" as="geometry">
                        <mxPoint y="305.65217391304344" as="sourcePoint"/>
                        <mxPoint x="239.99999999999943" y="305.652173913044" as="targetPoint"/>
                        <Array as="points">
                            <mxPoint x="240" y="305.65217391304344"/>
                        </Array>
                    </mxGeometry>
                </mxCell>
                <mxCell id="12" value="" style="endArrow=none;html=1;strokeWidth=4;" parent="323" edge="1">
                    <mxGeometry width="50" height="50" relative="1" as="geometry">
                        <mxPoint y="338.69565217391295" as="sourcePoint"/>
                        <mxPoint x="239.99999999999943" y="338.6956521739135" as="targetPoint"/>
                        <Array as="points">
                            <mxPoint x="240" y="338.69565217391295"/>
                        </Array>
                    </mxGeometry>
                </mxCell>
                <mxCell id="13" value="" style="endArrow=none;html=1;strokeWidth=4;" parent="323" edge="1">
                    <mxGeometry width="50" height="50" relative="1" as="geometry">
                        <mxPoint y="371.7391304347825" as="sourcePoint"/>
                        <mxPoint x="239.99999999999943" y="371.7391304347831" as="targetPoint"/>
                        <Array as="points">
                            <mxPoint x="240" y="371.7391304347825"/>
                        </Array>
                    </mxGeometry>
                </mxCell>
                <mxCell id="14" value="" style="endArrow=none;html=1;strokeWidth=4;" parent="323" edge="1">
                    <mxGeometry width="50" height="50" relative="1" as="geometry">
                        <mxPoint y="404.7826086956521" as="sourcePoint"/>
                        <mxPoint x="239.99999999999943" y="404.7826086956527" as="targetPoint"/>
                        <Array as="points">
                            <mxPoint x="240" y="404.7826086956521"/>
                        </Array>
                    </mxGeometry>
                </mxCell>
                <mxCell id="15" value="" style="endArrow=none;html=1;strokeWidth=4;" parent="323" edge="1">
                    <mxGeometry width="50" height="50" relative="1" as="geometry">
                        <mxPoint y="437.82608695652164" as="sourcePoint"/>
                        <mxPoint x="239.99999999999943" y="437.8260869565222" as="targetPoint"/>
                        <Array as="points">
                            <mxPoint x="240" y="437.82608695652164"/>
                        </Array>
                    </mxGeometry>
                </mxCell>
                <mxCell id="16" value="" style="endArrow=none;html=1;strokeWidth=4;" parent="323" edge="1">
                    <mxGeometry width="50" height="50" relative="1" as="geometry">
                        <mxPoint y="470.86956521739114" as="sourcePoint"/>
                        <mxPoint x="239.99999999999943" y="470.86956521739177" as="targetPoint"/>
                        <Array as="points">
                            <mxPoint x="240" y="470.86956521739114"/>
                        </Array>
                    </mxGeometry>
                </mxCell>
                <mxCell id="17" value="" style="endArrow=none;html=1;strokeWidth=4;" parent="323" edge="1">
                    <mxGeometry width="50" height="50" relative="1" as="geometry">
                        <mxPoint y="503.91304347826076" as="sourcePoint"/>
                        <mxPoint x="239.99999999999943" y="503.9130434782613" as="targetPoint"/>
                        <Array as="points">
                            <mxPoint x="240" y="503.91304347826076"/>
                        </Array>
                    </mxGeometry>
                </mxCell>
                <mxCell id="18" value="" style="endArrow=none;html=1;strokeWidth=4;" parent="323" edge="1">
                    <mxGeometry width="50" height="50" relative="1" as="geometry">
                        <mxPoint y="536.9565217391303" as="sourcePoint"/>
                        <mxPoint x="239.99999999999943" y="536.956521739131" as="targetPoint"/>
                        <Array as="points">
                            <mxPoint x="240" y="536.9565217391303"/>
                        </Array>
                    </mxGeometry>
                </mxCell>
                <mxCell id="31" value="" style="endArrow=none;html=1;strokeWidth=4;" parent="323" edge="1">
                    <mxGeometry width="50" height="50" relative="1" as="geometry">
                        <mxPoint y="33.043478260869556" as="sourcePoint"/>
                        <mxPoint x="240" y="33.043478260870096" as="targetPoint"/>
                        <Array as="points">
                            <mxPoint x="240" y="33.043478260869556"/>
                        </Array>
                    </mxGeometry>
                </mxCell>
                <mxCell id="32" value="" style="endArrow=none;html=1;strokeWidth=4;" parent="323" edge="1">
                    <mxGeometry width="50" height="50" relative="1" as="geometry">
                        <mxPoint y="62.782608695652165" as="sourcePoint"/>
                        <mxPoint x="240" y="62.78260869565272" as="targetPoint"/>
                        <Array as="points">
                            <mxPoint x="240" y="62.782608695652165"/>
                        </Array>
                    </mxGeometry>
                </mxCell>
                <mxCell id="234" value="" style="endArrow=none;html=1;strokeWidth=4;" parent="323" edge="1">
                    <mxGeometry width="50" height="50" relative="1" as="geometry">
                        <mxPoint y="99.13043478260865" as="sourcePoint"/>
                        <mxPoint x="240" y="99.13043478260926" as="targetPoint"/>
                        <Array as="points">
                            <mxPoint x="240" y="99.13043478260865"/>
                        </Array>
                    </mxGeometry>
                </mxCell>
                <mxCell id="235" value="" style="endArrow=none;html=1;strokeWidth=4;" parent="323" edge="1">
                    <mxGeometry width="50" height="50" relative="1" as="geometry">
                        <mxPoint y="140.43478260869566" as="sourcePoint"/>
                        <mxPoint x="240" y="140.4347826086961" as="targetPoint"/>
                        <Array as="points">
                            <mxPoint x="240" y="140.43478260869566"/>
                        </Array>
                    </mxGeometry>
                </mxCell>
                <mxCell id="324" value="" style="endArrow=classic;html=1;fontSize=21;fillColor=#a20025;strokeColor=#6F0000;strokeWidth=3;" parent="1" edge="1">
                    <mxGeometry relative="1" as="geometry">
                        <mxPoint x="1110" y="1580" as="sourcePoint"/>
                        <mxPoint x="1210" y="1580" as="targetPoint"/>
                    </mxGeometry>
                </mxCell>
                <mxCell id="325" value="clk" style="edgeLabel;resizable=0;html=1;align=center;verticalAlign=middle;strokeWidth=4;fontSize=21;" parent="324" connectable="0" vertex="1">
                    <mxGeometry relative="1" as="geometry"/>
                </mxCell>
                <mxCell id="326" value="" style="endArrow=classic;html=1;fontSize=21;strokeWidth=3;" parent="1" edge="1">
                    <mxGeometry relative="1" as="geometry">
                        <mxPoint x="1070" y="1299.57" as="sourcePoint"/>
                        <mxPoint x="1210" y="1299.57" as="targetPoint"/>
                    </mxGeometry>
                </mxCell>
                <mxCell id="327" value="pc(32)" style="edgeLabel;resizable=0;html=1;align=center;verticalAlign=middle;strokeWidth=4;fontSize=21;" parent="326" connectable="0" vertex="1">
                    <mxGeometry relative="1" as="geometry"/>
                </mxCell>
                <mxCell id="328" value="" style="endArrow=classic;html=1;strokeWidth=3;fontSize=21;fillColor=#d80073;strokeColor=#A50040;" parent="1" edge="1">
                    <mxGeometry relative="1" as="geometry">
                        <mxPoint x="1030" y="1490" as="sourcePoint"/>
                        <mxPoint x="1210" y="1490" as="targetPoint"/>
                    </mxGeometry>
                </mxCell>
                <mxCell id="329" value="r_csr_addr(12)" style="edgeLabel;resizable=0;html=1;align=center;verticalAlign=middle;strokeWidth=3;fontSize=21;" parent="328" connectable="0" vertex="1">
                    <mxGeometry relative="1" as="geometry"/>
                </mxCell>
                <mxCell id="330" value="" style="endArrow=classic;html=1;strokeWidth=3;fontSize=21;fillColor=#d80073;strokeColor=#A50040;" parent="1" edge="1">
                    <mxGeometry relative="1" as="geometry">
                        <mxPoint x="1030" y="1530" as="sourcePoint"/>
                        <mxPoint x="1210" y="1530" as="targetPoint"/>
                    </mxGeometry>
                </mxCell>
                <mxCell id="331" value="w_csr_addr(12)" style="edgeLabel;resizable=0;html=1;align=center;verticalAlign=middle;strokeWidth=3;fontSize=21;" parent="330" connectable="0" vertex="1">
                    <mxGeometry relative="1" as="geometry"/>
                </mxCell>
                <mxCell id="334" value="" style="endArrow=none;html=1;fontSize=21;strokeWidth=3;" parent="1" target="238" edge="1">
                    <mxGeometry relative="1" as="geometry">
                        <mxPoint x="1960" y="304.3800000000001" as="sourcePoint"/>
                        <mxPoint x="2160" y="304.3800000000001" as="targetPoint"/>
                    </mxGeometry>
                </mxCell>
                <mxCell id="335" value="inst(32)" style="edgeLabel;resizable=0;html=1;align=center;verticalAlign=middle;strokeWidth=4;fontSize=21;" parent="334" connectable="0" vertex="1">
                    <mxGeometry relative="1" as="geometry">
                        <mxPoint x="90" y="2" as="offset"/>
                    </mxGeometry>
                </mxCell>
                <mxCell id="238" value="" style="rounded=0;whiteSpace=wrap;html=1;strokeWidth=4;" parent="1" vertex="1">
                    <mxGeometry x="1860" y="270" width="160" height="70" as="geometry"/>
                </mxCell>
                <mxCell id="336" value="" style="endArrow=classic;html=1;fontSize=30;fillColor=#1ba1e2;strokeColor=#006EAF;strokeWidth=3;" parent="1" edge="1">
                    <mxGeometry relative="1" as="geometry">
                        <mxPoint x="1030.0000000000002" y="1452.7599999999998" as="sourcePoint"/>
                        <mxPoint x="1209.9999999999998" y="1452.7599999999998" as="targetPoint"/>
                    </mxGeometry>
                </mxCell>
                <mxCell id="337" value="jump_ecall" style="edgeLabel;resizable=0;html=1;align=center;verticalAlign=middle;strokeWidth=4;fontSize=21;" parent="336" connectable="0" vertex="1">
                    <mxGeometry relative="1" as="geometry"/>
                </mxCell>
                <mxCell id="338" value="" style="endArrow=classic;html=1;fontSize=30;fillColor=#1ba1e2;strokeColor=#006EAF;strokeWidth=3;" parent="1" edge="1">
                    <mxGeometry relative="1" as="geometry">
                        <mxPoint x="1030.0000000000002" y="1412.43" as="sourcePoint"/>
                        <mxPoint x="1209.9999999999998" y="1412.43" as="targetPoint"/>
                    </mxGeometry>
                </mxCell>
                <mxCell id="339" value="jump_mret" style="edgeLabel;resizable=0;html=1;align=center;verticalAlign=middle;strokeWidth=4;fontSize=21;" parent="338" connectable="0" vertex="1">
                    <mxGeometry relative="1" as="geometry"/>
                </mxCell>
                <mxCell id="340" value="" style="endArrow=classic;html=1;strokeWidth=3;fontSize=21;fillColor=#1ba1e2;strokeColor=#006EAF;" parent="1" edge="1">
                    <mxGeometry relative="1" as="geometry">
                        <mxPoint x="1030.0000000000002" y="1342.43" as="sourcePoint"/>
                        <mxPoint x="1210.0000000000002" y="1342.43" as="targetPoint"/>
                    </mxGeometry>
                </mxCell>
                <mxCell id="341" value="w_csr_en" style="edgeLabel;resizable=0;html=1;align=center;verticalAlign=middle;strokeWidth=3;fontSize=21;" parent="340" connectable="0" vertex="1">
                    <mxGeometry relative="1" as="geometry"/>
                </mxCell>
                <mxCell id="342" value="" style="endArrow=classic;html=1;strokeWidth=3;fontSize=21;fillColor=#1ba1e2;strokeColor=#006EAF;exitX=0.895;exitY=0;exitDx=0;exitDy=0;exitPerimeter=0;" parent="1" edge="1">
                    <mxGeometry relative="1" as="geometry">
                        <mxPoint x="1030.0000000000002" y="1372.53" as="sourcePoint"/>
                        <mxPoint x="1209.9999999999998" y="1372.43" as="targetPoint"/>
                    </mxGeometry>
                </mxCell>
                <mxCell id="343" value="r_csr_en" style="edgeLabel;resizable=0;html=1;align=center;verticalAlign=middle;strokeWidth=3;fontSize=21;" parent="342" connectable="0" vertex="1">
                    <mxGeometry relative="1" as="geometry"/>
                </mxCell>
                <mxCell id="344" value="" style="endArrow=classic;html=1;strokeWidth=3;fontSize=21;" parent="1" edge="1">
                    <mxGeometry relative="1" as="geometry">
                        <mxPoint x="1040" y="1250" as="sourcePoint"/>
                        <mxPoint x="1209.9999999999998" y="1249.9999999999998" as="targetPoint"/>
                    </mxGeometry>
                </mxCell>
                <mxCell id="345" value="w_csr_data(32)" style="edgeLabel;resizable=0;html=1;align=center;verticalAlign=middle;strokeWidth=3;fontSize=21;" parent="344" connectable="0" vertex="1">
                    <mxGeometry relative="1" as="geometry"/>
                </mxCell>
                <mxCell id="346" value="" style="endArrow=classic;html=1;strokeWidth=3;fontSize=21;" parent="1" edge="1">
                    <mxGeometry relative="1" as="geometry">
                        <mxPoint x="1430" y="1419.88" as="sourcePoint"/>
                        <mxPoint x="1600" y="1419" as="targetPoint"/>
                        <Array as="points">
                            <mxPoint x="1530" y="1420"/>
                        </Array>
                    </mxGeometry>
                </mxCell>
                <mxCell id="347" value="r_csr_data(32)" style="edgeLabel;resizable=0;html=1;align=center;verticalAlign=middle;strokeWidth=3;fontSize=21;" parent="346" connectable="0" vertex="1">
                    <mxGeometry relative="1" as="geometry">
                        <mxPoint x="-5" as="offset"/>
                    </mxGeometry>
                </mxCell>
                <mxCell id="351" value="" style="group" parent="1" vertex="1" connectable="0">
                    <mxGeometry x="1150" y="950" width="168.75" height="140" as="geometry"/>
                </mxCell>
                <mxCell id="161" value="" style="rounded=0;whiteSpace=wrap;html=1;strokeWidth=4;fontSize=21;" parent="351" vertex="1">
                    <mxGeometry width="168.75" height="140" as="geometry"/>
                </mxCell>
                <mxCell id="133" value="" style="shape=flexArrow;endArrow=classic;html=1;fontSize=30;startArrow=none;fillColor=#bac8d3;strokeColor=#23445d;" parent="1" edge="1">
                    <mxGeometry width="50" height="50" relative="1" as="geometry">
                        <mxPoint x="200" y="1231.5555555555557" as="sourcePoint"/>
                        <mxPoint x="359" y="1230" as="targetPoint"/>
                        <Array as="points">
                            <mxPoint x="179" y="1230"/>
                            <mxPoint x="219" y="1230"/>
                            <mxPoint x="249" y="1230"/>
                        </Array>
                    </mxGeometry>
                </mxCell>
                <mxCell id="140" value="" style="shape=flexArrow;endArrow=none;html=1;fontSize=30;fillColor=#bac8d3;strokeColor=#23445d;" parent="1" edge="1">
                    <mxGeometry width="50" height="50" relative="1" as="geometry">
                        <mxPoint x="120" y="1230" as="sourcePoint"/>
                        <mxPoint x="189" y="1230" as="targetPoint"/>
                        <Array as="points"/>
                    </mxGeometry>
                </mxCell>
                <mxCell id="354" value="" style="shape=flexArrow;endArrow=none;html=1;fontSize=30;startArrow=none;fillColor=#bac8d3;strokeColor=#23445d;" parent="1" edge="1">
                    <mxGeometry width="50" height="50" relative="1" as="geometry">
                        <mxPoint x="179" y="1230" as="sourcePoint"/>
                        <mxPoint x="200" y="1231.5555555555557" as="targetPoint"/>
                        <Array as="points"/>
                    </mxGeometry>
                </mxCell>
                <mxCell id="138" value="&lt;span style=&quot;color: rgb(240, 240, 240); font-family: Helvetica; font-size: 21px; font-style: normal; font-variant-ligatures: normal; font-variant-caps: normal; font-weight: 400; letter-spacing: normal; orphans: 2; text-align: center; text-indent: 0px; text-transform: none; widows: 2; word-spacing: 0px; -webkit-text-stroke-width: 0px; background-color: rgb(24, 20, 29); text-decoration-thickness: initial; text-decoration-style: initial; text-decoration-color: initial; float: none; display: inline !important;&quot;&gt;inst[19:15]&lt;/span&gt;" style="text;whiteSpace=wrap;html=1;fontSize=21;container=0;" parent="1" vertex="1">
                    <mxGeometry x="174" y="1210" width="120" height="50" as="geometry"/>
                </mxCell>
                <mxCell id="355" value="" style="shape=flexArrow;endArrow=none;html=1;fontSize=30;startArrow=none;fillColor=#bac8d3;strokeColor=#23445d;" parent="1" edge="1">
                    <mxGeometry width="50" height="50" relative="1" as="geometry">
                        <mxPoint x="182" y="1276" as="sourcePoint"/>
                        <mxPoint x="190" y="1277.015873015873" as="targetPoint"/>
                        <Array as="points"/>
                    </mxGeometry>
                </mxCell>
                <mxCell id="124" value="" style="endArrow=classic;html=1;strokeWidth=3;fontSize=21;fillColor=#d80073;strokeColor=#A50040;" parent="1" edge="1">
                    <mxGeometry relative="1" as="geometry">
                        <mxPoint x="360" y="1232" as="sourcePoint"/>
                        <mxPoint x="540" y="1232" as="targetPoint"/>
                    </mxGeometry>
                </mxCell>
                <mxCell id="125" value="r_rs2_addr(5)" style="edgeLabel;resizable=0;html=1;align=center;verticalAlign=middle;strokeWidth=3;fontSize=21;" parent="124" connectable="0" vertex="1">
                    <mxGeometry relative="1" as="geometry"/>
                </mxCell>
                <mxCell id="126" value="" style="endArrow=classic;html=1;strokeWidth=3;fontSize=21;fillColor=#d80073;strokeColor=#A50040;" parent="1" edge="1">
                    <mxGeometry relative="1" as="geometry">
                        <mxPoint x="360" y="1336" as="sourcePoint"/>
                        <mxPoint x="540" y="1336" as="targetPoint"/>
                    </mxGeometry>
                </mxCell>
                <mxCell id="127" value="w_rd_addr(5)" style="edgeLabel;resizable=0;html=1;align=center;verticalAlign=middle;strokeWidth=3;fontSize=21;" parent="126" connectable="0" vertex="1">
                    <mxGeometry relative="1" as="geometry"/>
                </mxCell>
                <mxCell id="358" value="" style="shape=flexArrow;endArrow=none;html=1;fontSize=30;startArrow=none;fillColor=#bac8d3;strokeColor=#23445d;" parent="1" target="141" edge="1">
                    <mxGeometry width="50" height="50" relative="1" as="geometry">
                        <mxPoint x="190" y="1277.015873015873" as="sourcePoint"/>
                        <mxPoint x="361.9999999999999" y="1276.0000000000002" as="targetPoint"/>
                        <Array as="points"/>
                    </mxGeometry>
                </mxCell>
                <mxCell id="141" value="&lt;span style=&quot;color: rgb(240, 240, 240); font-family: Helvetica; font-size: 21px; font-style: normal; font-variant-ligatures: normal; font-variant-caps: normal; font-weight: 400; letter-spacing: normal; orphans: 2; text-align: center; text-indent: 0px; text-transform: none; widows: 2; word-spacing: 0px; -webkit-text-stroke-width: 0px; background-color: rgb(24, 20, 29); text-decoration-thickness: initial; text-decoration-style: initial; text-decoration-color: initial; float: none; display: inline !important;&quot;&gt;inst[24:20]&lt;/span&gt;" style="text;whiteSpace=wrap;html=1;fontSize=21;" parent="1" vertex="1">
                    <mxGeometry x="174" y="1260" width="110" height="50" as="geometry"/>
                </mxCell>
                <mxCell id="119" value="GPR" style="text;html=1;align=center;verticalAlign=middle;resizable=0;points=[];autosize=1;strokeColor=none;fillColor=none;fontSize=30;fontStyle=1" parent="1" vertex="1">
                    <mxGeometry x="605" y="980" width="90" height="50" as="geometry"/>
                </mxCell>
                <mxCell id="122" value="" style="endArrow=classic;html=1;strokeWidth=3;fontSize=21;fillColor=#d80073;strokeColor=#A50040;" parent="1" edge="1">
                    <mxGeometry relative="1" as="geometry">
                        <mxPoint x="360" y="1277.3600000000001" as="sourcePoint"/>
                        <mxPoint x="540" y="1277.3600000000001" as="targetPoint"/>
                    </mxGeometry>
                </mxCell>
                <mxCell id="123" value="r_rs1_addr(5)" style="edgeLabel;resizable=0;html=1;align=center;verticalAlign=middle;strokeWidth=3;fontSize=21;" parent="122" connectable="0" vertex="1">
                    <mxGeometry relative="1" as="geometry"/>
                </mxCell>
                <mxCell id="128" value="" style="endArrow=classic;html=1;strokeWidth=3;fontSize=21;" parent="1" edge="1">
                    <mxGeometry relative="1" as="geometry">
                        <mxPoint x="360" y="1104" as="sourcePoint"/>
                        <mxPoint x="540" y="1104.09" as="targetPoint"/>
                    </mxGeometry>
                </mxCell>
                <mxCell id="129" value="w_data(32)" style="edgeLabel;resizable=0;html=1;align=center;verticalAlign=middle;strokeWidth=3;fontSize=21;" parent="128" connectable="0" vertex="1">
                    <mxGeometry relative="1" as="geometry"/>
                </mxCell>
                <mxCell id="130" value="" style="endArrow=classic;html=1;strokeWidth=3;fontSize=21;fillColor=#1ba1e2;strokeColor=#006EAF;" parent="1" edge="1">
                    <mxGeometry relative="1" as="geometry">
                        <mxPoint x="390" y="1162.36" as="sourcePoint"/>
                        <mxPoint x="540" y="1161.9299999999998" as="targetPoint"/>
                    </mxGeometry>
                </mxCell>
                <mxCell id="131" value="w_en" style="edgeLabel;resizable=0;html=1;align=center;verticalAlign=middle;strokeWidth=3;fontSize=21;" parent="130" connectable="0" vertex="1">
                    <mxGeometry relative="1" as="geometry">
                        <mxPoint as="offset"/>
                    </mxGeometry>
                </mxCell>
                <mxCell id="290" value="" style="endArrow=classic;html=1;fontSize=21;fillColor=#a20025;strokeColor=#6F0000;strokeWidth=3;" parent="1" edge="1">
                    <mxGeometry relative="1" as="geometry">
                        <mxPoint x="440" y="1059.8" as="sourcePoint"/>
                        <mxPoint x="540" y="1059.8" as="targetPoint"/>
                    </mxGeometry>
                </mxCell>
                <mxCell id="291" value="clk" style="edgeLabel;resizable=0;html=1;align=center;verticalAlign=middle;strokeWidth=4;fontSize=21;" parent="290" connectable="0" vertex="1">
                    <mxGeometry relative="1" as="geometry"/>
                </mxCell>
                <mxCell id="310" value="" style="group" parent="1" vertex="1" connectable="0">
                    <mxGeometry x="540" y="1029.8" width="220" height="360" as="geometry"/>
                </mxCell>
                <mxCell id="299" value="" style="rounded=0;whiteSpace=wrap;html=1;strokeWidth=3;" parent="310" vertex="1">
                    <mxGeometry width="220.00000000000003" height="359.99999999999994" as="geometry"/>
                </mxCell>
                <mxCell id="298" value="" style="group" parent="310" vertex="1" connectable="0">
                    <mxGeometry x="62.85714285714287" y="47.36842105263158" width="78.57142857142858" height="265.2631578947369" as="geometry"/>
                </mxCell>
                <mxCell id="105" value="" style="rounded=0;whiteSpace=wrap;html=1;direction=south;fontStyle=0;strokeWidth=3;container=0;" parent="298" vertex="1">
                    <mxGeometry width="78.57142857142858" height="265.2631578947369" as="geometry"/>
                </mxCell>
                <mxCell id="106" value="" style="endArrow=none;html=1;fontStyle=0;strokeWidth=3;" parent="298" target="105" edge="1">
                    <mxGeometry width="50" height="50" relative="1" as="geometry">
                        <mxPoint y="34.22750424448217" as="sourcePoint"/>
                        <mxPoint x="39.28571428571429" y="34.22750424448217" as="targetPoint"/>
                        <Array as="points">
                            <mxPoint x="78.57142857142858" y="34.22750424448217"/>
                        </Array>
                    </mxGeometry>
                </mxCell>
                <mxCell id="107" value="" style="endArrow=none;html=1;fontStyle=0;strokeWidth=3;" parent="298" edge="1">
                    <mxGeometry width="50" height="50" relative="1" as="geometry">
                        <mxPoint y="68.45500848896434" as="sourcePoint"/>
                        <mxPoint x="78.57142857142858" y="68.45500848896496" as="targetPoint"/>
                        <Array as="points">
                            <mxPoint x="39.28571428571429" y="68.45500848896434"/>
                            <mxPoint x="78.57142857142858" y="68.45500848896434"/>
                        </Array>
                    </mxGeometry>
                </mxCell>
                <mxCell id="108" value="" style="endArrow=none;html=1;fontStyle=0;strokeWidth=3;" parent="298" edge="1">
                    <mxGeometry width="50" height="50" relative="1" as="geometry">
                        <mxPoint y="102.68251273344652" as="sourcePoint"/>
                        <mxPoint x="78.57142857142858" y="102.68251273344711" as="targetPoint"/>
                        <Array as="points">
                            <mxPoint x="78.57142857142858" y="102.68251273344652"/>
                        </Array>
                    </mxGeometry>
                </mxCell>
                <mxCell id="109" value="" style="endArrow=none;html=1;fontStyle=0;strokeWidth=3;" parent="298" edge="1">
                    <mxGeometry width="50" height="50" relative="1" as="geometry">
                        <mxPoint y="136.91001697792868" as="sourcePoint"/>
                        <mxPoint x="78.57142857142858" y="136.9100169779293" as="targetPoint"/>
                        <Array as="points">
                            <mxPoint x="78.57142857142858" y="136.91001697792868"/>
                        </Array>
                    </mxGeometry>
                </mxCell>
                <mxCell id="110" value="" style="endArrow=none;html=1;fontStyle=0;strokeWidth=3;" parent="298" edge="1">
                    <mxGeometry width="50" height="50" relative="1" as="geometry">
                        <mxPoint y="171.13752122241084" as="sourcePoint"/>
                        <mxPoint x="78.57142857142858" y="171.1375212224115" as="targetPoint"/>
                        <Array as="points">
                            <mxPoint x="78.57142857142858" y="171.13752122241084"/>
                        </Array>
                    </mxGeometry>
                </mxCell>
                <mxCell id="111" value="" style="endArrow=none;html=1;fontStyle=0;strokeWidth=3;" parent="298" edge="1">
                    <mxGeometry width="50" height="50" relative="1" as="geometry">
                        <mxPoint y="200.8384380305603" as="sourcePoint"/>
                        <mxPoint x="78.57142857142858" y="200.8384380305609" as="targetPoint"/>
                        <Array as="points">
                            <mxPoint x="78.57142857142858" y="200.8384380305603"/>
                        </Array>
                    </mxGeometry>
                </mxCell>
                <mxCell id="112" value="" style="endArrow=none;html=1;fontStyle=0;strokeWidth=3;" parent="298" edge="1">
                    <mxGeometry width="50" height="50" relative="1" as="geometry">
                        <mxPoint y="231.0356536502547" as="sourcePoint"/>
                        <mxPoint x="78.57142857142858" y="231.0356536502553" as="targetPoint"/>
                        <Array as="points">
                            <mxPoint x="78.57142857142858" y="231.0356536502547"/>
                        </Array>
                    </mxGeometry>
                </mxCell>
                <mxCell id="272" value="" style="endArrow=none;html=1;entryX=0;entryY=0.5;entryDx=0;entryDy=0;exitX=1;exitY=0.5;exitDx=0;exitDy=0;strokeWidth=3;" parent="298" source="105" target="105" edge="1">
                    <mxGeometry width="50" height="50" relative="1" as="geometry">
                        <mxPoint x="44.19642857142857" y="282.37691001697794" as="sourcePoint"/>
                        <mxPoint x="68.75" y="239.59252971137525" as="targetPoint"/>
                    </mxGeometry>
                </mxCell>
                <mxCell id="294" value="" style="endArrow=classic;html=1;strokeWidth=3;fontSize=21;" parent="1" edge="1">
                    <mxGeometry relative="1" as="geometry">
                        <mxPoint x="760" y="1168.86" as="sourcePoint"/>
                        <mxPoint x="930" y="1168.57" as="targetPoint"/>
                    </mxGeometry>
                </mxCell>
                <mxCell id="295" value="rs1_data(32)" style="edgeLabel;resizable=0;html=1;align=center;verticalAlign=middle;strokeWidth=3;fontSize=21;" parent="294" connectable="0" vertex="1">
                    <mxGeometry relative="1" as="geometry"/>
                </mxCell>
                <mxCell id="296" value="" style="endArrow=classic;html=1;strokeWidth=3;fontSize=21;" parent="1" edge="1">
                    <mxGeometry relative="1" as="geometry">
                        <mxPoint x="760" y="1270.09" as="sourcePoint"/>
                        <mxPoint x="930" y="1269.8" as="targetPoint"/>
                    </mxGeometry>
                </mxCell>
                <mxCell id="297" value="rs2_data(32)" style="edgeLabel;resizable=0;html=1;align=center;verticalAlign=middle;strokeWidth=3;fontSize=21;" parent="296" connectable="0" vertex="1">
                    <mxGeometry relative="1" as="geometry"/>
                </mxCell>
                <mxCell id="360" value="" style="endArrow=none;html=1;strokeWidth=1;" parent="1" edge="1">
                    <mxGeometry width="50" height="50" relative="1" as="geometry">
                        <mxPoint x="930" y="1170" as="sourcePoint"/>
                        <mxPoint x="930" y="1020" as="targetPoint"/>
                    </mxGeometry>
                </mxCell>
                <mxCell id="362" value="" style="endArrow=none;html=1;strokeWidth=1;" parent="1" edge="1">
                    <mxGeometry width="50" height="50" relative="1" as="geometry">
                        <mxPoint x="930" y="1020" as="sourcePoint"/>
                        <mxPoint x="990" y="1020" as="targetPoint"/>
                    </mxGeometry>
                </mxCell>
                <mxCell id="363" value="" style="endArrow=none;html=1;strokeWidth=1;" parent="1" edge="1">
                    <mxGeometry width="50" height="50" relative="1" as="geometry">
                        <mxPoint x="930" y="1270" as="sourcePoint"/>
                        <mxPoint x="980" y="1270" as="targetPoint"/>
                    </mxGeometry>
                </mxCell>
                <mxCell id="364" value="" style="endArrow=none;html=1;strokeWidth=1;startArrow=none;" parent="1" source="445" edge="1">
                    <mxGeometry width="50" height="50" relative="1" as="geometry">
                        <mxPoint x="980" y="1270" as="sourcePoint"/>
                        <mxPoint x="980" y="1070" as="targetPoint"/>
                    </mxGeometry>
                </mxCell>
                <mxCell id="365" value="" style="group" parent="1" vertex="1" connectable="0">
                    <mxGeometry x="1000" y="430" width="461.25" height="320" as="geometry"/>
                </mxCell>
                <mxCell id="100" value="" style="shape=step;perimeter=stepPerimeter;whiteSpace=wrap;html=1;fixedSize=1;strokeWidth=4;fontSize=30;size=30;" parent="365" vertex="1">
                    <mxGeometry x="127.82909930715935" y="53.33333333333333" width="204.52655889145495" height="266.66666666666663" as="geometry"/>
                </mxCell>
                <mxCell id="267" value="ALU" style="text;html=1;align=center;verticalAlign=middle;resizable=0;points=[];autosize=1;strokeColor=none;fillColor=none;fontSize=30;fontStyle=1" parent="365" vertex="1">
                    <mxGeometry x="180.00267898383373" y="10" width="90" height="50" as="geometry"/>
                </mxCell>
                <mxCell id="281" value="" style="endArrow=classic;html=1;strokeWidth=3;fontSize=21;" parent="365" edge="1">
                    <mxGeometry relative="1" as="geometry">
                        <mxPoint y="90" as="sourcePoint"/>
                        <mxPoint x="137.4162817551963" y="87.17333333333328" as="targetPoint"/>
                        <Array as="points"/>
                    </mxGeometry>
                </mxCell>
                <mxCell id="282" value="SrcA(32)" style="edgeLabel;resizable=0;html=1;align=center;verticalAlign=middle;strokeWidth=3;fontSize=21;" parent="281" connectable="0" vertex="1">
                    <mxGeometry relative="1" as="geometry"/>
                </mxCell>
                <mxCell id="283" value="" style="endArrow=classic;html=1;strokeWidth=3;fontSize=21;" parent="365" edge="1">
                    <mxGeometry relative="1" as="geometry">
                        <mxPoint y="268" as="sourcePoint"/>
                        <mxPoint x="137.4162817551963" y="266.66666666666663" as="targetPoint"/>
                        <Array as="points"/>
                    </mxGeometry>
                </mxCell>
                <mxCell id="284" value="SrcB(32）" style="edgeLabel;resizable=0;html=1;align=center;verticalAlign=middle;strokeWidth=3;fontSize=21;" parent="283" connectable="0" vertex="1">
                    <mxGeometry relative="1" as="geometry"/>
                </mxCell>
                <mxCell id="285" value="" style="endArrow=classic;html=1;strokeWidth=3;fontSize=21;fillColor=#1ba1e2;strokeColor=#006EAF;" parent="365" edge="1">
                    <mxGeometry relative="1" as="geometry">
                        <mxPoint y="186.1422222222222" as="sourcePoint"/>
                        <mxPoint x="153.39491916859123" y="186.5066666666665" as="targetPoint"/>
                    </mxGeometry>
                </mxCell>
                <mxCell id="286" value="alu_func(4)" style="edgeLabel;resizable=0;html=1;align=center;verticalAlign=middle;strokeWidth=3;fontSize=21;" parent="285" connectable="0" vertex="1">
                    <mxGeometry relative="1" as="geometry"/>
                </mxCell>
                <mxCell id="287" value="" style="endArrow=classic;html=1;strokeWidth=3;fontSize=21;" parent="365" edge="1">
                    <mxGeometry relative="1" as="geometry">
                        <mxPoint x="332.3556581986143" y="187.43075650118217" as="sourcePoint"/>
                        <mxPoint x="470" y="186" as="targetPoint"/>
                        <Array as="points"/>
                    </mxGeometry>
                </mxCell>
                <mxCell id="288" value="ALUout(32)" style="edgeLabel;resizable=0;html=1;align=center;verticalAlign=middle;strokeWidth=3;fontSize=21;" parent="287" connectable="0" vertex="1">
                    <mxGeometry relative="1" as="geometry">
                        <mxPoint x="-11" y="-2" as="offset"/>
                    </mxGeometry>
                </mxCell>
                <mxCell id="422" value="" style="endArrow=none;html=1;strokeWidth=1;fontSize=20;" parent="365" edge="1">
                    <mxGeometry width="50" height="50" relative="1" as="geometry">
                        <mxPoint x="490" y="351" as="sourcePoint"/>
                        <mxPoint x="490" y="181" as="targetPoint"/>
                    </mxGeometry>
                </mxCell>
                <mxCell id="472" value="" style="endArrow=none;html=1;strokeWidth=1;fontSize=20;" parent="365" edge="1">
                    <mxGeometry width="50" height="50" relative="1" as="geometry">
                        <mxPoint x="100" y="20" as="sourcePoint"/>
                        <mxPoint x="490" y="20" as="targetPoint"/>
                    </mxGeometry>
                </mxCell>
                <mxCell id="366" value="" style="rounded=0;whiteSpace=wrap;html=1;strokeWidth=3;" parent="1" vertex="1">
                    <mxGeometry x="940" y="460" width="60" height="97" as="geometry"/>
                </mxCell>
                <mxCell id="367" value="&lt;div style=&quot;text-align: center;&quot;&gt;&lt;span style=&quot;background-color: initial;&quot;&gt;&lt;b style=&quot;&quot;&gt;&lt;font style=&quot;font-size: 20px;&quot;&gt;MUX&lt;/font&gt;&lt;/b&gt;&lt;/span&gt;&lt;/div&gt;" style="text;whiteSpace=wrap;html=1;" parent="1" vertex="1">
                    <mxGeometry x="940" y="430" width="70" height="40" as="geometry"/>
                </mxCell>
                <mxCell id="368" value="&lt;div style=&quot;text-align: center;&quot;&gt;&lt;span style=&quot;background-color: initial;&quot;&gt;&lt;b style=&quot;&quot;&gt;&lt;font style=&quot;font-size: 20px;&quot;&gt;MUX&lt;/font&gt;&lt;/b&gt;&lt;/span&gt;&lt;/div&gt;" style="text;whiteSpace=wrap;html=1;" parent="1" vertex="1">
                    <mxGeometry x="940" y="600" width="70" height="40" as="geometry"/>
                </mxCell>
                <mxCell id="369" value="" style="rounded=0;whiteSpace=wrap;html=1;strokeWidth=3;fontSize=20;" parent="1" vertex="1">
                    <mxGeometry x="940" y="630" width="60" height="130" as="geometry"/>
                </mxCell>
                <mxCell id="371" value="" style="endArrow=classic;html=1;fontSize=21;fillColor=#1ba1e2;strokeColor=#006EAF;strokeWidth=3;" parent="1" edge="1">
                    <mxGeometry relative="1" as="geometry">
                        <mxPoint x="810" y="509.56" as="sourcePoint"/>
                        <mxPoint x="940.0000000000002" y="507.43000000000035" as="targetPoint"/>
                    </mxGeometry>
                </mxCell>
                <mxCell id="372" value="alu_a_sel" style="edgeLabel;resizable=0;html=1;align=center;verticalAlign=middle;fontSize=21;" parent="371" connectable="0" vertex="1">
                    <mxGeometry relative="1" as="geometry"/>
                </mxCell>
                <mxCell id="373" value="" style="endArrow=none;html=1;strokeWidth=1;fontSize=20;" parent="1" edge="1">
                    <mxGeometry width="50" height="50" relative="1" as="geometry">
                        <mxPoint x="780" y="1170" as="sourcePoint"/>
                        <mxPoint x="780" y="540" as="targetPoint"/>
                    </mxGeometry>
                </mxCell>
                <mxCell id="374" value="" style="endArrow=none;html=1;strokeWidth=1;fontSize=20;" parent="1" edge="1">
                    <mxGeometry width="50" height="50" relative="1" as="geometry">
                        <mxPoint x="780" y="540" as="sourcePoint"/>
                        <mxPoint x="940" y="540" as="targetPoint"/>
                    </mxGeometry>
                </mxCell>
                <mxCell id="375" value="" style="endArrow=none;html=1;strokeWidth=1;fontSize=20;startArrow=none;" parent="1" source="394" edge="1">
                    <mxGeometry width="50" height="50" relative="1" as="geometry">
                        <mxPoint x="1730" y="430" as="sourcePoint"/>
                        <mxPoint x="1730" y="310" as="targetPoint"/>
                    </mxGeometry>
                </mxCell>
                <mxCell id="376" value="" style="endArrow=none;html=1;strokeWidth=1;fontSize=20;" parent="1" edge="1">
                    <mxGeometry width="50" height="50" relative="1" as="geometry">
                        <mxPoint x="830" y="430" as="sourcePoint"/>
                        <mxPoint x="1730" y="430" as="targetPoint"/>
                    </mxGeometry>
                </mxCell>
                <mxCell id="377" value="" style="endArrow=none;html=1;strokeWidth=1;fontSize=20;" parent="1" edge="1">
                    <mxGeometry width="50" height="50" relative="1" as="geometry">
                        <mxPoint x="830" y="480" as="sourcePoint"/>
                        <mxPoint x="830" y="430" as="targetPoint"/>
                    </mxGeometry>
                </mxCell>
                <mxCell id="378" value="" style="endArrow=none;html=1;strokeWidth=1;fontSize=20;entryX=-0.008;entryY=0.203;entryDx=0;entryDy=0;entryPerimeter=0;" parent="1" target="366" edge="1">
                    <mxGeometry width="50" height="50" relative="1" as="geometry">
                        <mxPoint x="830" y="480" as="sourcePoint"/>
                        <mxPoint x="880" y="430" as="targetPoint"/>
                    </mxGeometry>
                </mxCell>
                <mxCell id="380" value="" style="endArrow=classic;html=1;strokeWidth=1;fontSize=20;" parent="1" edge="1">
                    <mxGeometry width="50" height="50" relative="1" as="geometry">
                        <mxPoint x="850" y="650" as="sourcePoint"/>
                        <mxPoint x="940" y="650" as="targetPoint"/>
                    </mxGeometry>
                </mxCell>
                <mxCell id="381" value="32'h0" style="edgeLabel;html=1;align=center;verticalAlign=middle;resizable=0;points=[];fontSize=20;" parent="380" vertex="1" connectable="0">
                    <mxGeometry x="0.2513" y="2" relative="1" as="geometry">
                        <mxPoint x="-6" y="2" as="offset"/>
                    </mxGeometry>
                </mxCell>
                <mxCell id="382" value="" style="endArrow=none;html=1;strokeWidth=1;fontSize=20;" parent="1" edge="1">
                    <mxGeometry width="50" height="50" relative="1" as="geometry">
                        <mxPoint x="840" y="1270" as="sourcePoint"/>
                        <mxPoint x="840" y="670" as="targetPoint"/>
                    </mxGeometry>
                </mxCell>
                <mxCell id="383" value="" style="endArrow=none;html=1;strokeWidth=1;fontSize=20;entryX=-0.017;entryY=0.307;entryDx=0;entryDy=0;entryPerimeter=0;" parent="1" target="369" edge="1">
                    <mxGeometry width="50" height="50" relative="1" as="geometry">
                        <mxPoint x="840" y="670" as="sourcePoint"/>
                        <mxPoint x="890" y="670" as="targetPoint"/>
                    </mxGeometry>
                </mxCell>
                <mxCell id="385" value="" style="endArrow=none;html=1;strokeWidth=1;fontSize=20;" parent="1" edge="1">
                    <mxGeometry width="50" height="50" relative="1" as="geometry">
                        <mxPoint x="718" y="900" as="sourcePoint"/>
                        <mxPoint x="880" y="900" as="targetPoint"/>
                    </mxGeometry>
                </mxCell>
                <mxCell id="386" value="" style="endArrow=none;html=1;strokeWidth=1;fontSize=20;" parent="1" edge="1">
                    <mxGeometry width="50" height="50" relative="1" as="geometry">
                        <mxPoint x="880" y="900" as="sourcePoint"/>
                        <mxPoint x="880" y="700" as="targetPoint"/>
                    </mxGeometry>
                </mxCell>
                <mxCell id="387" value="" style="endArrow=none;html=1;strokeWidth=1;fontSize=20;entryX=-0.019;entryY=0.542;entryDx=0;entryDy=0;entryPerimeter=0;" parent="1" target="369" edge="1">
                    <mxGeometry width="50" height="50" relative="1" as="geometry">
                        <mxPoint x="880" y="700" as="sourcePoint"/>
                        <mxPoint x="930" y="650" as="targetPoint"/>
                    </mxGeometry>
                </mxCell>
                <mxCell id="388" value="" style="endArrow=none;html=1;strokeWidth=1;fontSize=20;" parent="1" edge="1">
                    <mxGeometry width="50" height="50" relative="1" as="geometry">
                        <mxPoint x="910" y="730" as="sourcePoint"/>
                        <mxPoint x="940" y="730" as="targetPoint"/>
                    </mxGeometry>
                </mxCell>
                <mxCell id="389" value="" style="endArrow=none;html=1;strokeWidth=1;fontSize=20;" parent="1" edge="1">
                    <mxGeometry width="50" height="50" relative="1" as="geometry">
                        <mxPoint x="910" y="900" as="sourcePoint"/>
                        <mxPoint x="910" y="730" as="targetPoint"/>
                    </mxGeometry>
                </mxCell>
                <mxCell id="390" value="" style="endArrow=none;html=1;strokeWidth=1;fontSize=20;startArrow=none;" parent="1" source="475" edge="1">
                    <mxGeometry width="50" height="50" relative="1" as="geometry">
                        <mxPoint x="910" y="900" as="sourcePoint"/>
                        <mxPoint x="1530" y="900" as="targetPoint"/>
                    </mxGeometry>
                </mxCell>
                <mxCell id="391" value="" style="endArrow=none;html=1;strokeWidth=1;fontSize=20;" parent="1" edge="1">
                    <mxGeometry width="50" height="50" relative="1" as="geometry">
                        <mxPoint x="1530" y="1410" as="sourcePoint"/>
                        <mxPoint x="1530" y="900" as="targetPoint"/>
                    </mxGeometry>
                </mxCell>
                <mxCell id="395" value="" style="endArrow=none;html=1;strokeWidth=1;fontSize=20;startArrow=none;" parent="1" target="394" edge="1">
                    <mxGeometry width="50" height="50" relative="1" as="geometry">
                        <mxPoint x="1730" y="430" as="sourcePoint"/>
                        <mxPoint x="1730" y="310" as="targetPoint"/>
                    </mxGeometry>
                </mxCell>
                <mxCell id="394" value="" style="shape=waypoint;sketch=0;fillStyle=solid;size=6;pointerEvents=1;points=[];fillColor=none;resizable=0;rotatable=0;perimeter=centerPerimeter;snapToPoint=1;strokeWidth=3;fontSize=20;" parent="1" vertex="1">
                    <mxGeometry x="1720" y="300" width="20" height="20" as="geometry"/>
                </mxCell>
                <mxCell id="396" value="" style="endArrow=none;html=1;strokeWidth=1;fontSize=20;" parent="1" edge="1">
                    <mxGeometry width="50" height="50" relative="1" as="geometry">
                        <mxPoint x="1730" y="430" as="sourcePoint"/>
                        <mxPoint x="1730" y="430" as="targetPoint"/>
                    </mxGeometry>
                </mxCell>
                <mxCell id="397" value="" style="endArrow=none;html=1;strokeWidth=1;fontSize=20;" parent="1" edge="1">
                    <mxGeometry width="50" height="50" relative="1" as="geometry">
                        <mxPoint x="1550" y="590.5" as="sourcePoint"/>
                        <mxPoint x="1550" y="431.5" as="targetPoint"/>
                    </mxGeometry>
                </mxCell>
                <mxCell id="399" value="" style="endArrow=none;html=1;strokeWidth=1;fontSize=20;" parent="1" edge="1">
                    <mxGeometry width="50" height="50" relative="1" as="geometry">
                        <mxPoint x="1550" y="1180" as="sourcePoint"/>
                        <mxPoint x="1550" y="590" as="targetPoint"/>
                    </mxGeometry>
                </mxCell>
                <mxCell id="400" value="" style="endArrow=none;html=1;strokeWidth=1;fontSize=20;" parent="1" edge="1">
                    <mxGeometry width="50" height="50" relative="1" as="geometry">
                        <mxPoint x="1020" y="1180" as="sourcePoint"/>
                        <mxPoint x="1550" y="1180" as="targetPoint"/>
                    </mxGeometry>
                </mxCell>
                <mxCell id="401" value="" style="endArrow=none;html=1;strokeWidth=1;fontSize=20;" parent="1" edge="1">
                    <mxGeometry width="50" height="50" relative="1" as="geometry">
                        <mxPoint x="1020" y="1300" as="sourcePoint"/>
                        <mxPoint x="1020" y="1180" as="targetPoint"/>
                    </mxGeometry>
                </mxCell>
                <mxCell id="402" value="" style="endArrow=none;html=1;strokeWidth=1;fontSize=20;" parent="1" edge="1">
                    <mxGeometry width="50" height="50" relative="1" as="geometry">
                        <mxPoint x="1020" y="1300" as="sourcePoint"/>
                        <mxPoint x="1070" y="1300" as="targetPoint"/>
                        <Array as="points">
                            <mxPoint x="1050" y="1300"/>
                        </Array>
                    </mxGeometry>
                </mxCell>
                <mxCell id="403" value="&lt;div style=&quot;text-align: center;&quot;&gt;&lt;span style=&quot;background-color: initial;&quot;&gt;&lt;b style=&quot;&quot;&gt;&lt;font style=&quot;font-size: 20px;&quot;&gt;MUX&lt;/font&gt;&lt;/b&gt;&lt;/span&gt;&lt;/div&gt;" style="text;whiteSpace=wrap;html=1;" parent="1" vertex="1">
                    <mxGeometry x="301.25" y="980" width="70" height="40" as="geometry"/>
                </mxCell>
                <mxCell id="404" value="" style="rounded=0;whiteSpace=wrap;html=1;strokeWidth=3;fontSize=20;" parent="1" vertex="1">
                    <mxGeometry x="299" y="1010" width="60" height="160" as="geometry"/>
                </mxCell>
                <mxCell id="405" value="" style="endArrow=classic;html=1;fontSize=21;fillColor=#1ba1e2;strokeColor=#006EAF;strokeWidth=3;" parent="1" edge="1">
                    <mxGeometry relative="1" as="geometry">
                        <mxPoint x="180" y="1150" as="sourcePoint"/>
                        <mxPoint x="299" y="1150" as="targetPoint"/>
                        <Array as="points"/>
                    </mxGeometry>
                </mxCell>
                <mxCell id="406" value="w_sel(2)" style="edgeLabel;resizable=0;html=1;align=center;verticalAlign=middle;fontSize=21;" parent="405" connectable="0" vertex="1">
                    <mxGeometry relative="1" as="geometry">
                        <mxPoint x="-5" as="offset"/>
                    </mxGeometry>
                </mxCell>
                <mxCell id="407" value="" style="shape=step;perimeter=stepPerimeter;whiteSpace=wrap;html=1;fixedSize=1;strokeWidth=3;fontSize=20;rotation=-180;" parent="1" vertex="1">
                    <mxGeometry x="1395.25" y="90" width="70" height="70" as="geometry"/>
                </mxCell>
                <mxCell id="408" value="" style="endArrow=none;html=1;strokeWidth=1;fontSize=20;" parent="1" edge="1">
                    <mxGeometry width="50" height="50" relative="1" as="geometry">
                        <mxPoint x="1730" y="310" as="sourcePoint"/>
                        <mxPoint x="1730" y="150" as="targetPoint"/>
                    </mxGeometry>
                </mxCell>
                <mxCell id="409" value="" style="endArrow=none;html=1;strokeWidth=1;fontSize=20;exitX=0.018;exitY=0.143;exitDx=0;exitDy=0;exitPerimeter=0;" parent="1" source="407" edge="1">
                    <mxGeometry width="50" height="50" relative="1" as="geometry">
                        <mxPoint x="1460" y="150" as="sourcePoint"/>
                        <mxPoint x="1730" y="150" as="targetPoint"/>
                    </mxGeometry>
                </mxCell>
                <mxCell id="410" value="" style="endArrow=classic;html=1;strokeWidth=1;fontSize=20;entryX=0.112;entryY=0.81;entryDx=0;entryDy=0;entryPerimeter=0;" parent="1" target="407" edge="1">
                    <mxGeometry width="50" height="50" relative="1" as="geometry">
                        <mxPoint x="1550" y="103" as="sourcePoint"/>
                        <mxPoint x="1560" y="80" as="targetPoint"/>
                    </mxGeometry>
                </mxCell>
                <mxCell id="411" value="32'h4" style="edgeLabel;html=1;align=center;verticalAlign=middle;resizable=0;points=[];fontSize=20;" parent="410" vertex="1" connectable="0">
                    <mxGeometry x="-0.1647" relative="1" as="geometry">
                        <mxPoint as="offset"/>
                    </mxGeometry>
                </mxCell>
                <mxCell id="412" value="" style="endArrow=classic;html=1;strokeWidth=1;fontSize=20;" parent="1" edge="1">
                    <mxGeometry width="50" height="50" relative="1" as="geometry">
                        <mxPoint x="1395.25" y="124.74" as="sourcePoint"/>
                        <mxPoint x="1270" y="125" as="targetPoint"/>
                    </mxGeometry>
                </mxCell>
                <mxCell id="413" value="pc_plus4" style="edgeLabel;html=1;align=center;verticalAlign=middle;resizable=0;points=[];fontSize=20;" parent="412" vertex="1" connectable="0">
                    <mxGeometry x="0.1779" relative="1" as="geometry">
                        <mxPoint x="11" as="offset"/>
                    </mxGeometry>
                </mxCell>
                <mxCell id="414" value="" style="endArrow=none;html=1;strokeWidth=1;fontSize=20;" parent="1" edge="1">
                    <mxGeometry width="50" height="50" relative="1" as="geometry">
                        <mxPoint x="150" y="125" as="sourcePoint"/>
                        <mxPoint x="1275.63" y="124.8" as="targetPoint"/>
                    </mxGeometry>
                </mxCell>
                <mxCell id="415" value="" style="endArrow=none;html=1;strokeWidth=1;fontSize=20;" parent="1" edge="1">
                    <mxGeometry width="50" height="50" relative="1" as="geometry">
                        <mxPoint x="150" y="1130" as="sourcePoint"/>
                        <mxPoint x="149.85" y="125" as="targetPoint"/>
                    </mxGeometry>
                </mxCell>
                <mxCell id="416" value="" style="endArrow=none;html=1;strokeWidth=1;fontSize=20;entryX=0.017;entryY=0.125;entryDx=0;entryDy=0;entryPerimeter=0;" parent="1" edge="1">
                    <mxGeometry width="50" height="50" relative="1" as="geometry">
                        <mxPoint x="148.98" y="1130" as="sourcePoint"/>
                        <mxPoint x="298.9999999999999" y="1130" as="targetPoint"/>
                    </mxGeometry>
                </mxCell>
                <mxCell id="417" value="" style="shape=waypoint;sketch=0;fillStyle=solid;size=6;pointerEvents=1;points=[];fillColor=none;resizable=0;rotatable=0;perimeter=centerPerimeter;snapToPoint=1;strokeWidth=3;fontSize=20;" parent="1" vertex="1">
                    <mxGeometry x="900" y="891.5" width="20" height="20" as="geometry"/>
                </mxCell>
                <mxCell id="418" value="" style="line;strokeWidth=1;direction=south;html=1;fontSize=20;" parent="1" vertex="1">
                    <mxGeometry x="905" y="900" width="10" height="60" as="geometry"/>
                </mxCell>
                <mxCell id="420" value="" style="endArrow=none;html=1;strokeWidth=1;fontSize=20;" parent="1" edge="1">
                    <mxGeometry width="50" height="50" relative="1" as="geometry">
                        <mxPoint x="260" y="960" as="sourcePoint"/>
                        <mxPoint x="910" y="960" as="targetPoint"/>
                    </mxGeometry>
                </mxCell>
                <mxCell id="421" value="" style="endArrow=none;html=1;strokeWidth=1;fontSize=20;" parent="1" edge="1">
                    <mxGeometry width="50" height="50" relative="1" as="geometry">
                        <mxPoint x="260" y="1030" as="sourcePoint"/>
                        <mxPoint x="260" y="960" as="targetPoint"/>
                    </mxGeometry>
                </mxCell>
                <mxCell id="423" value="" style="endArrow=none;html=1;strokeWidth=1;fontSize=20;" parent="1" edge="1">
                    <mxGeometry width="50" height="50" relative="1" as="geometry">
                        <mxPoint x="191" y="780" as="sourcePoint"/>
                        <mxPoint x="1491" y="780" as="targetPoint"/>
                    </mxGeometry>
                </mxCell>
                <mxCell id="424" value="" style="endArrow=none;html=1;strokeWidth=1;fontSize=20;" parent="1" edge="1">
                    <mxGeometry width="50" height="50" relative="1" as="geometry">
                        <mxPoint x="190" y="1100" as="sourcePoint"/>
                        <mxPoint x="190" y="780" as="targetPoint"/>
                    </mxGeometry>
                </mxCell>
                <mxCell id="425" value="" style="endArrow=none;html=1;strokeWidth=1;fontSize=20;" parent="1" edge="1">
                    <mxGeometry width="50" height="50" relative="1" as="geometry">
                        <mxPoint x="2310" y="870" as="sourcePoint"/>
                        <mxPoint x="2310" y="520" as="targetPoint"/>
                    </mxGeometry>
                </mxCell>
                <mxCell id="426" value="" style="endArrow=none;html=1;strokeWidth=1;fontSize=20;" parent="1" edge="1">
                    <mxGeometry width="50" height="50" relative="1" as="geometry">
                        <mxPoint x="1510" y="520" as="sourcePoint"/>
                        <mxPoint x="2310" y="520" as="targetPoint"/>
                    </mxGeometry>
                </mxCell>
                <mxCell id="427" value="" style="endArrow=none;html=1;strokeWidth=1;fontSize=20;" parent="1" edge="1">
                    <mxGeometry width="50" height="50" relative="1" as="geometry">
                        <mxPoint x="1510" y="810" as="sourcePoint"/>
                        <mxPoint x="1510" y="520" as="targetPoint"/>
                    </mxGeometry>
                </mxCell>
                <mxCell id="428" value="" style="endArrow=none;html=1;strokeWidth=1;fontSize=20;" parent="1" edge="1">
                    <mxGeometry width="50" height="50" relative="1" as="geometry">
                        <mxPoint x="218.464013671875" y="810" as="sourcePoint"/>
                        <mxPoint x="1510" y="810" as="targetPoint"/>
                    </mxGeometry>
                </mxCell>
                <mxCell id="429" value="" style="endArrow=none;html=1;strokeWidth=1;fontSize=20;" parent="1" edge="1">
                    <mxGeometry width="50" height="50" relative="1" as="geometry">
                        <mxPoint x="220" y="1070" as="sourcePoint"/>
                        <mxPoint x="220" y="810" as="targetPoint"/>
                    </mxGeometry>
                </mxCell>
                <mxCell id="430" value="" style="endArrow=none;html=1;strokeWidth=1;fontSize=20;entryX=0.017;entryY=0.375;entryDx=0;entryDy=0;entryPerimeter=0;" parent="1" target="404" edge="1">
                    <mxGeometry width="50" height="50" relative="1" as="geometry">
                        <mxPoint x="220" y="1070" as="sourcePoint"/>
                        <mxPoint x="270" y="1020" as="targetPoint"/>
                    </mxGeometry>
                </mxCell>
                <mxCell id="431" value="" style="endArrow=none;html=1;strokeWidth=1;fontSize=20;entryX=-0.031;entryY=0.121;entryDx=0;entryDy=0;entryPerimeter=0;" parent="1" target="404" edge="1">
                    <mxGeometry width="50" height="50" relative="1" as="geometry">
                        <mxPoint x="260" y="1030" as="sourcePoint"/>
                        <mxPoint x="310" y="980" as="targetPoint"/>
                    </mxGeometry>
                </mxCell>
                <mxCell id="432" value="" style="endArrow=none;html=1;strokeWidth=1;fontSize=20;entryX=0.02;entryY=0.558;entryDx=0;entryDy=0;entryPerimeter=0;" parent="1" target="404" edge="1">
                    <mxGeometry width="50" height="50" relative="1" as="geometry">
                        <mxPoint x="190" y="1100" as="sourcePoint"/>
                        <mxPoint x="240" y="1050" as="targetPoint"/>
                    </mxGeometry>
                </mxCell>
                <mxCell id="433" value="" style="shape=waypoint;sketch=0;fillStyle=solid;size=6;pointerEvents=1;points=[];fillColor=none;resizable=0;rotatable=0;perimeter=centerPerimeter;snapToPoint=1;strokeWidth=3;fontSize=20;" parent="1" vertex="1">
                    <mxGeometry x="1540" y="419.5" width="20" height="20" as="geometry"/>
                </mxCell>
                <mxCell id="435" value="" style="endArrow=none;html=1;strokeWidth=1;fontSize=20;" parent="1" edge="1">
                    <mxGeometry width="50" height="50" relative="1" as="geometry">
                        <mxPoint x="1488" y="615" as="sourcePoint"/>
                        <mxPoint x="1590" y="615" as="targetPoint"/>
                    </mxGeometry>
                </mxCell>
                <mxCell id="438" value="" style="endArrow=none;html=1;strokeWidth=1;fontSize=20;" parent="1" source="481" edge="1">
                    <mxGeometry width="50" height="50" relative="1" as="geometry">
                        <mxPoint x="1590" y="1110.76796875" as="sourcePoint"/>
                        <mxPoint x="1590" y="615" as="targetPoint"/>
                        <Array as="points">
                            <mxPoint x="1590" y="655"/>
                        </Array>
                    </mxGeometry>
                </mxCell>
                <mxCell id="439" value="" style="endArrow=none;html=1;strokeWidth=1;fontSize=20;" parent="1" edge="1">
                    <mxGeometry width="50" height="50" relative="1" as="geometry">
                        <mxPoint x="1590" y="1110" as="sourcePoint"/>
                        <mxPoint x="1610" y="1110" as="targetPoint"/>
                    </mxGeometry>
                </mxCell>
                <mxCell id="440" value="" style="endArrow=none;html=1;strokeWidth=1;fontSize=20;" parent="1" source="480" edge="1">
                    <mxGeometry width="50" height="50" relative="1" as="geometry">
                        <mxPoint x="1590" y="1048" as="sourcePoint"/>
                        <mxPoint x="1610" y="1048" as="targetPoint"/>
                    </mxGeometry>
                </mxCell>
                <mxCell id="441" value="" style="endArrow=none;html=1;strokeWidth=1;fontSize=20;" parent="1" edge="1">
                    <mxGeometry width="50" height="50" relative="1" as="geometry">
                        <mxPoint x="980" y="1140" as="sourcePoint"/>
                        <mxPoint x="1410" y="1140" as="targetPoint"/>
                    </mxGeometry>
                </mxCell>
                <mxCell id="444" value="" style="endArrow=none;html=1;strokeWidth=1;" parent="1" target="445" edge="1">
                    <mxGeometry width="50" height="50" relative="1" as="geometry">
                        <mxPoint x="980" y="1269.9999999999998" as="sourcePoint"/>
                        <mxPoint x="980" y="1070" as="targetPoint"/>
                    </mxGeometry>
                </mxCell>
                <mxCell id="445" value="" style="shape=waypoint;sketch=0;fillStyle=solid;size=6;pointerEvents=1;points=[];fillColor=none;resizable=0;rotatable=0;perimeter=centerPerimeter;snapToPoint=1;strokeWidth=3;fontSize=20;" parent="1" vertex="1">
                    <mxGeometry x="970" y="1130" width="20" height="20" as="geometry"/>
                </mxCell>
                <mxCell id="446" value="" style="endArrow=none;html=1;strokeWidth=1;fontSize=20;" parent="1" edge="1">
                    <mxGeometry width="50" height="50" relative="1" as="geometry">
                        <mxPoint x="1410" y="1140" as="sourcePoint"/>
                        <mxPoint x="1410" y="980" as="targetPoint"/>
                    </mxGeometry>
                </mxCell>
                <mxCell id="447" value="" style="endArrow=none;html=1;strokeWidth=1;fontSize=20;" parent="1" edge="1">
                    <mxGeometry width="50" height="50" relative="1" as="geometry">
                        <mxPoint x="1410" y="979" as="sourcePoint"/>
                        <mxPoint x="1620" y="979" as="targetPoint"/>
                    </mxGeometry>
                </mxCell>
                <mxCell id="448" value="" style="rounded=0;whiteSpace=wrap;html=1;strokeWidth=3;" parent="1" vertex="1">
                    <mxGeometry x="1360" y="322.5" width="60" height="97" as="geometry"/>
                </mxCell>
                <mxCell id="449" value="&lt;div style=&quot;text-align: center;&quot;&gt;&lt;span style=&quot;font-size: 20px;&quot;&gt;&lt;b&gt;OR_GATE&lt;/b&gt;&lt;/span&gt;&lt;/div&gt;" style="text;whiteSpace=wrap;html=1;" parent="1" vertex="1">
                    <mxGeometry x="1340" y="290" width="70" height="40" as="geometry"/>
                </mxCell>
                <mxCell id="450" value="" style="endArrow=classic;html=1;fontSize=21;fillColor=#1ba1e2;strokeColor=#006EAF;strokeWidth=3;" parent="1" edge="1">
                    <mxGeometry relative="1" as="geometry">
                        <mxPoint x="1200" y="340" as="sourcePoint"/>
                        <mxPoint x="1360" y="340.16000000000014" as="targetPoint"/>
                    </mxGeometry>
                </mxCell>
                <mxCell id="451" value="jump_branch" style="edgeLabel;resizable=0;html=1;align=center;verticalAlign=middle;strokeWidth=4;fontSize=21;" parent="450" connectable="0" vertex="1">
                    <mxGeometry relative="1" as="geometry">
                        <mxPoint as="offset"/>
                    </mxGeometry>
                </mxCell>
                <mxCell id="452" value="" style="endArrow=classic;html=1;fontSize=30;fillColor=#1ba1e2;strokeColor=#006EAF;strokeWidth=3;" parent="1" edge="1">
                    <mxGeometry relative="1" as="geometry">
                        <mxPoint x="1200" y="360" as="sourcePoint"/>
                        <mxPoint x="1360" y="360" as="targetPoint"/>
                    </mxGeometry>
                </mxCell>
                <mxCell id="453" value="jump_mret" style="edgeLabel;resizable=0;html=1;align=center;verticalAlign=middle;strokeWidth=4;fontSize=21;" parent="452" connectable="0" vertex="1">
                    <mxGeometry relative="1" as="geometry"/>
                </mxCell>
                <mxCell id="454" value="" style="endArrow=classic;html=1;fontSize=30;fillColor=#1ba1e2;strokeColor=#006EAF;strokeWidth=3;" parent="1" edge="1">
                    <mxGeometry relative="1" as="geometry">
                        <mxPoint x="1200" y="380" as="sourcePoint"/>
                        <mxPoint x="1360" y="379.9999999999999" as="targetPoint"/>
                    </mxGeometry>
                </mxCell>
                <mxCell id="455" value="jump_ecall" style="edgeLabel;resizable=0;html=1;align=center;verticalAlign=middle;strokeWidth=4;fontSize=21;" parent="454" connectable="0" vertex="1">
                    <mxGeometry relative="1" as="geometry"/>
                </mxCell>
                <mxCell id="456" value="" style="endArrow=classic;html=1;fontSize=30;fillColor=#1ba1e2;strokeColor=#006EAF;strokeWidth=3;" parent="1" edge="1">
                    <mxGeometry relative="1" as="geometry">
                        <mxPoint x="1200" y="400" as="sourcePoint"/>
                        <mxPoint x="1359.9999999999998" y="399.99999999999966" as="targetPoint"/>
                    </mxGeometry>
                </mxCell>
                <mxCell id="457" value="jump_jtype" style="edgeLabel;resizable=0;html=1;align=center;verticalAlign=middle;strokeWidth=4;fontSize=21;" parent="456" connectable="0" vertex="1">
                    <mxGeometry relative="1" as="geometry"/>
                </mxCell>
                <mxCell id="458" value="" style="rounded=0;whiteSpace=wrap;html=1;strokeWidth=3;" parent="1" vertex="1">
                    <mxGeometry x="1180" y="170" width="100" height="130" as="geometry"/>
                </mxCell>
                <mxCell id="459" value="" style="endArrow=classic;html=1;fontSize=21;fillColor=#1ba1e2;strokeColor=#006EAF;strokeWidth=3;" parent="1" edge="1">
                    <mxGeometry relative="1" as="geometry">
                        <mxPoint x="1020" y="180" as="sourcePoint"/>
                        <mxPoint x="1180" y="180.16000000000008" as="targetPoint"/>
                    </mxGeometry>
                </mxCell>
                <mxCell id="460" value="jump_branch" style="edgeLabel;resizable=0;html=1;align=center;verticalAlign=middle;strokeWidth=4;fontSize=21;" parent="459" connectable="0" vertex="1">
                    <mxGeometry relative="1" as="geometry">
                        <mxPoint as="offset"/>
                    </mxGeometry>
                </mxCell>
                <mxCell id="461" value="" style="endArrow=classic;html=1;fontSize=30;fillColor=#1ba1e2;strokeColor=#006EAF;strokeWidth=3;" parent="1" edge="1">
                    <mxGeometry relative="1" as="geometry">
                        <mxPoint x="1020" y="200" as="sourcePoint"/>
                        <mxPoint x="1180" y="200" as="targetPoint"/>
                    </mxGeometry>
                </mxCell>
                <mxCell id="462" value="jump_mret" style="edgeLabel;resizable=0;html=1;align=center;verticalAlign=middle;strokeWidth=4;fontSize=21;" parent="461" connectable="0" vertex="1">
                    <mxGeometry relative="1" as="geometry"/>
                </mxCell>
                <mxCell id="463" value="" style="endArrow=classic;html=1;fontSize=30;fillColor=#1ba1e2;strokeColor=#006EAF;strokeWidth=3;" parent="1" edge="1">
                    <mxGeometry relative="1" as="geometry">
                        <mxPoint x="1020" y="220" as="sourcePoint"/>
                        <mxPoint x="1180" y="220" as="targetPoint"/>
                    </mxGeometry>
                </mxCell>
                <mxCell id="464" value="jump_ecall" style="edgeLabel;resizable=0;html=1;align=center;verticalAlign=middle;strokeWidth=4;fontSize=21;" parent="463" connectable="0" vertex="1">
                    <mxGeometry relative="1" as="geometry"/>
                </mxCell>
                <mxCell id="465" value="" style="endArrow=classic;html=1;fontSize=30;fillColor=#1ba1e2;strokeColor=#006EAF;strokeWidth=3;" parent="1" edge="1">
                    <mxGeometry relative="1" as="geometry">
                        <mxPoint x="1020" y="240" as="sourcePoint"/>
                        <mxPoint x="1180" y="239.99999999999955" as="targetPoint"/>
                    </mxGeometry>
                </mxCell>
                <mxCell id="466" value="jump_jtype" style="edgeLabel;resizable=0;html=1;align=center;verticalAlign=middle;strokeWidth=4;fontSize=21;" parent="465" connectable="0" vertex="1">
                    <mxGeometry relative="1" as="geometry"/>
                </mxCell>
                <mxCell id="468" value="" style="edgeStyle=none;html=1;strokeWidth=1;fontSize=20;" parent="1" source="467" target="458" edge="1">
                    <mxGeometry relative="1" as="geometry"/>
                </mxCell>
                <mxCell id="467" value="&lt;div style=&quot;text-align: center;&quot;&gt;&lt;span style=&quot;background-color: initial;&quot;&gt;&lt;b style=&quot;&quot;&gt;&lt;font style=&quot;font-size: 20px;&quot;&gt;MUX&lt;/font&gt;&lt;/b&gt;&lt;/span&gt;&lt;/div&gt;" style="text;whiteSpace=wrap;html=1;" parent="1" vertex="1">
                    <mxGeometry x="1195" y="130" width="70" height="40" as="geometry"/>
                </mxCell>
                <mxCell id="470" value="" style="shape=waypoint;sketch=0;fillStyle=solid;size=6;pointerEvents=1;points=[];fillColor=none;resizable=0;rotatable=0;perimeter=centerPerimeter;snapToPoint=1;strokeWidth=3;fontSize=20;" parent="1" vertex="1">
                    <mxGeometry x="1480" y="605" width="20" height="20" as="geometry"/>
                </mxCell>
                <mxCell id="471" value="" style="endArrow=none;html=1;strokeWidth=1;fontSize=20;" parent="1" edge="1">
                    <mxGeometry width="50" height="50" relative="1" as="geometry">
                        <mxPoint x="1490" y="620" as="sourcePoint"/>
                        <mxPoint x="1490" y="450" as="targetPoint"/>
                    </mxGeometry>
                </mxCell>
                <mxCell id="473" value="" style="endArrow=none;html=1;strokeWidth=1;fontSize=20;" parent="1" edge="1">
                    <mxGeometry width="50" height="50" relative="1" as="geometry">
                        <mxPoint x="1100" y="450" as="sourcePoint"/>
                        <mxPoint x="1100" y="290" as="targetPoint"/>
                    </mxGeometry>
                </mxCell>
                <mxCell id="474" value="" style="endArrow=none;html=1;strokeWidth=1;fontSize=20;" parent="1" target="475" edge="1">
                    <mxGeometry width="50" height="50" relative="1" as="geometry">
                        <mxPoint x="910" y="900" as="sourcePoint"/>
                        <mxPoint x="1510" y="900" as="targetPoint"/>
                        <Array as="points">
                            <mxPoint x="1070" y="900"/>
                        </Array>
                    </mxGeometry>
                </mxCell>
                <mxCell id="475" value="" style="shape=waypoint;sketch=0;fillStyle=solid;size=6;pointerEvents=1;points=[];fillColor=none;resizable=0;rotatable=0;perimeter=centerPerimeter;snapToPoint=1;strokeWidth=3;fontSize=20;" parent="1" vertex="1">
                    <mxGeometry x="1050" y="890.5" width="20" height="20" as="geometry"/>
                </mxCell>
                <mxCell id="476" value="" style="endArrow=none;html=1;strokeWidth=1;fontSize=20;" parent="1" edge="1">
                    <mxGeometry width="50" height="50" relative="1" as="geometry">
                        <mxPoint x="1059.98" y="900" as="sourcePoint"/>
                        <mxPoint x="1059.98" y="270" as="targetPoint"/>
                    </mxGeometry>
                </mxCell>
                <mxCell id="477" value="" style="endArrow=none;html=1;strokeWidth=1;fontSize=20;" parent="1" edge="1">
                    <mxGeometry width="50" height="50" relative="1" as="geometry">
                        <mxPoint x="1060" y="270" as="sourcePoint"/>
                        <mxPoint x="1180" y="270" as="targetPoint"/>
                    </mxGeometry>
                </mxCell>
                <mxCell id="478" value="" style="endArrow=none;html=1;strokeWidth=1;fontSize=20;" parent="1" edge="1">
                    <mxGeometry width="50" height="50" relative="1" as="geometry">
                        <mxPoint x="1100" y="290" as="sourcePoint"/>
                        <mxPoint x="1180" y="290" as="targetPoint"/>
                    </mxGeometry>
                </mxCell>
                <mxCell id="479" value="" style="endArrow=none;html=1;strokeWidth=1;fontSize=20;" parent="1" edge="1">
                    <mxGeometry width="50" height="50" relative="1" as="geometry">
                        <mxPoint x="1280" y="250" as="sourcePoint"/>
                        <mxPoint x="1430" y="250" as="targetPoint"/>
                    </mxGeometry>
                </mxCell>
                <mxCell id="480" value="" style="shape=waypoint;sketch=0;fillStyle=solid;size=6;pointerEvents=1;points=[];fillColor=none;resizable=0;rotatable=0;perimeter=centerPerimeter;snapToPoint=1;strokeWidth=3;fontSize=20;" parent="1" vertex="1">
                    <mxGeometry x="1580.0000000000005" y="1038" width="20" height="20" as="geometry"/>
                </mxCell>
                <mxCell id="481" value="" style="shape=waypoint;sketch=0;fillStyle=solid;size=6;pointerEvents=1;points=[];fillColor=none;resizable=0;rotatable=0;perimeter=centerPerimeter;snapToPoint=1;strokeWidth=3;fontSize=20;" parent="1" vertex="1">
                    <mxGeometry x="1580.0000000000005" y="1100.76796875" width="20" height="20" as="geometry"/>
                </mxCell>
                <mxCell id="482" value="" style="endArrow=none;html=1;strokeWidth=1;fontSize=20;" parent="1" edge="1">
                    <mxGeometry width="50" height="50" relative="1" as="geometry">
                        <mxPoint x="1590" y="1200" as="sourcePoint"/>
                        <mxPoint x="1590" y="1110" as="targetPoint"/>
                    </mxGeometry>
                </mxCell>
                <mxCell id="483" value="" style="endArrow=none;html=1;strokeWidth=1;fontSize=20;" parent="1" edge="1">
                    <mxGeometry width="50" height="50" relative="1" as="geometry">
                        <mxPoint x="1040" y="1200" as="sourcePoint"/>
                        <mxPoint x="1590" y="1200" as="targetPoint"/>
                    </mxGeometry>
                </mxCell>
                <mxCell id="484" value="" style="endArrow=none;html=1;strokeWidth=1;fontSize=20;" parent="1" edge="1">
                    <mxGeometry width="50" height="50" relative="1" as="geometry">
                        <mxPoint x="1040" y="1250" as="sourcePoint"/>
                        <mxPoint x="1040" y="1200" as="targetPoint"/>
                    </mxGeometry>
                </mxCell>
                <mxCell id="488" value="" style="shape=flexArrow;endArrow=classic;html=1;strokeWidth=1;fontSize=20;fillColor=#bac8d3;strokeColor=#23445d;startArrow=none;" parent="1" source="492" edge="1">
                    <mxGeometry width="50" height="50" relative="1" as="geometry">
                        <mxPoint x="120" y="1530" as="sourcePoint"/>
                        <mxPoint x="1035" y="1530" as="targetPoint"/>
                    </mxGeometry>
                </mxCell>
                <mxCell id="489" value="" style="shape=flexArrow;endArrow=classic;html=1;strokeWidth=1;fontSize=20;fillColor=#bac8d3;strokeColor=#23445d;" parent="1" edge="1">
                    <mxGeometry width="50" height="50" relative="1" as="geometry">
                        <mxPoint x="120" y="1487" as="sourcePoint"/>
                        <mxPoint x="1030" y="1487" as="targetPoint"/>
                    </mxGeometry>
                </mxCell>
                <mxCell id="491" value="&lt;span style=&quot;color: rgb(240, 240, 240); font-family: Helvetica; font-size: 21px; font-style: normal; font-variant-ligatures: normal; font-variant-caps: normal; font-weight: 400; letter-spacing: normal; orphans: 2; text-align: center; text-indent: 0px; text-transform: none; widows: 2; word-spacing: 0px; -webkit-text-stroke-width: 0px; background-color: rgb(24, 20, 29); text-decoration-thickness: initial; text-decoration-style: initial; text-decoration-color: initial; float: none; display: inline !important;&quot;&gt;inst[31:20]&lt;/span&gt;" style="text;whiteSpace=wrap;html=1;fontSize=21;" parent="1" vertex="1">
                    <mxGeometry x="510" y="1470" width="120" height="50" as="geometry"/>
                </mxCell>
                <mxCell id="493" value="" style="shape=flexArrow;endArrow=none;html=1;strokeWidth=1;fontSize=20;fillColor=#bac8d3;strokeColor=#23445d;" parent="1" target="492" edge="1">
                    <mxGeometry width="50" height="50" relative="1" as="geometry">
                        <mxPoint x="120" y="1530" as="sourcePoint"/>
                        <mxPoint x="1035" y="1530" as="targetPoint"/>
                    </mxGeometry>
                </mxCell>
                <mxCell id="492" value="&lt;span style=&quot;color: rgb(240, 240, 240); font-family: Helvetica; font-size: 21px; font-style: normal; font-variant-ligatures: normal; font-variant-caps: normal; font-weight: 400; letter-spacing: normal; orphans: 2; text-align: center; text-indent: 0px; text-transform: none; widows: 2; word-spacing: 0px; -webkit-text-stroke-width: 0px; background-color: rgb(24, 20, 29); text-decoration-thickness: initial; text-decoration-style: initial; text-decoration-color: initial; float: none; display: inline !important;&quot;&gt;inst[31:20]&lt;/span&gt;" style="text;whiteSpace=wrap;html=1;fontSize=21;" parent="1" vertex="1">
                    <mxGeometry x="510" y="1507" width="120" height="50" as="geometry"/>
                </mxCell>
                <mxCell id="497" value="" style="endArrow=none;html=1;strokeWidth=1;fontSize=35;" parent="1" edge="1">
                    <mxGeometry width="50" height="50" relative="1" as="geometry">
                        <mxPoint x="1470" y="615.3299999999999" as="sourcePoint"/>
                        <mxPoint x="1510" y="615.3299999999999" as="targetPoint"/>
                    </mxGeometry>
                </mxCell>
            </root>
        </mxGraphModel>
    </diagram>
</mxfile>